<svg id="图层_1" data-name="图层 1" xmlns="http://www.w3.org/2000/svg" viewBox="0 0 1300 1986.61"><path d="M1155,43.5a69.59,69.59,0,0,0,7.25.5q2.74,0,9.25,2a54.43,54.43,0,0,1,10.5,4.25q4,2.25,12,6.25l1.5,2L1200,62q3,3.5,4.5,5a12.35,12.35,0,0,1,2.5,3.75,6.39,6.39,0,0,1,.75,3.5,5.73,5.73,0,0,1-.75,2c-.34.5-1,1.58-2,3.25-2,1.33-3.84,2.5-5.5,3.5a5.43,5.43,0,0,1-1.75-.25q-.75-.25-3.75,1.5a106.8,106.8,0,0,0-9,6.25q-6,4.5-9,3.5a4.78,4.78,0,0,0-5.25,1.25,15,15,0,0,1-6,3.5A24.47,24.47,0,0,1,1157,100q-4,0-10,4.75a60.75,60.75,0,0,1-8.5,6L1132,114l-4.5,4q4,2.5,8.5,5l3.5,4.5a3.63,3.63,0,0,0-.75,1,13.45,13.45,0,0,1-1.25,1.75,9.75,9.75,0,0,0-1.5,2.5,16.35,16.35,0,0,1-1.5,2.75q-2,1.5-3.75,2.75t-10.25,1.25q-8.51,0-10.75,1c-1.5.67-3.25,1.33-5.25,2l-3.5,3a33.54,33.54,0,0,0-8.5,5.5l1.5,3a4.16,4.16,0,0,0,4,1,20.32,20.32,0,0,0,1.75,3,5.58,5.58,0,0,1,1,2.25c.16.83.41,2.42.75,4.75,2.66.67,4.5,1.08,5.5,1.25s2.58.42,4.75.75a11.58,11.58,0,0,1,5.25,2,24.92,24.92,0,0,0,2.5,1.75,3.41,3.41,0,0,0,1.5.25q5-9.5,7-13.25a48.67,48.67,0,0,1,5.25-7.75,31.94,31.94,0,0,0,5-8.5,31.09,31.09,0,0,1,4.75-8.25,169.47,169.47,0,0,0,9.5-14.25q5.49-5,7.75-7.25a18.23,18.23,0,0,1,4.75-3.5q2.49-1.25,6.5-3.75l1-1c.66.67,1.5.67,2.5,0l1.5,4.5,5,2,1-.5,3,2.5h1.5q1,4.5,1.5,6.25c.33,1.17.58,2,.75,2.5a10.49,10.49,0,0,0,1.25,2.25l2,.5,3.5,5.5-.5,2a1.44,1.44,0,0,0,1,.5c.33,0,.41.75.25,2.25a17.76,17.76,0,0,0,0,4.25q.24,2-2.25,6a36,36,0,0,1-3.5,5c-1.67.33-3,.58-4,.75a3.91,3.91,0,0,1-2.75-.5,4.44,4.44,0,0,0-3-.5,8.93,8.93,0,0,0-4,2,14.51,14.51,0,0,1-4.75,2.5,11.26,11.26,0,0,0-4,2c-1,.83-2.84,2.25-5.5,4.25l-5.5,7.5a26.55,26.55,0,0,0,6.5,12.5l4.5,2.25a23.25,23.25,0,0,0,5.25,1.5A30.79,30.79,0,0,0,1184,183q6.49-1,13.5-2.75a48.64,48.64,0,0,1,11.25-1.75,55.1,55.1,0,0,0,6.25-.25c1.33-.17,2.58-.33,3.75-.5a3.73,3.73,0,0,1,2.5.25,2.44,2.44,0,0,0,1.25.5l1.5-1a2.93,2.93,0,0,0,2.5,1.5l1.5,1,3.5,2.5,2-1.5.5,2a4.87,4.87,0,0,0,1.75,1.25,26.65,26.65,0,0,1,2.75,1.25c1.33.67,2.58,1.25,3.75,1.75s2,.83,2.5,1a7.47,7.47,0,0,0,2.25.25l1,1a11.92,11.92,0,0,0,9,1.5l.5,1a71.34,71.34,0,0,0,8,3.25,11.33,11.33,0,0,1,3.75,1.75q1.24,1,4.25,3a15.56,15.56,0,0,0,.75,2.5,1.67,1.67,0,0,1,0,1.25,15,15,0,0,1-.75,1.75,5.59,5.59,0,0,0-2.5.5,24.41,24.41,0,0,0-3.5,2.5q-2.51,2-7.25,1.5t-9.75-1.5a20,20,0,0,0-8.25-.25,33.48,33.48,0,0,1-9.5.25,54.83,54.83,0,0,0-12.75.5,69.41,69.41,0,0,1-13.25.75A61,61,0,0,0,1192.5,211a116.13,116.13,0,0,1-16,2,73.31,73.31,0,0,0-16.25,2.75q-7.76,2.25-11,3.5a43.36,43.36,0,0,1-7,2q-3.75.75-12.25,4.5a148.74,148.74,0,0,1-15.75,6A138.29,138.29,0,0,0,1096.5,239a17.2,17.2,0,0,1-2,2.5,63.2,63.2,0,0,0-4.5,6,46.77,46.77,0,0,1-6.25,7.5,17.38,17.38,0,0,0-4,5,29.49,29.49,0,0,1-4.75,6.25,69.37,69.37,0,0,0-7.5,10q-4,6.25-4.25,6.75a4.08,4.08,0,0,1-.75,1q4,7.5,8,14l5.5-4.5,9.5-10,12.5-11,3-3a80,80,0,0,1,11.25-7.5q7.74-4.5,12.75-4.25a36.29,36.29,0,0,0,10.25-1,40.73,40.73,0,0,1,9.25-1.25,9.36,9.36,0,0,1,6.5,2.25q2.49,2.25,4.5,4c1.33,1.17,3,2.58,5,4.25,1.66,3.67,2.75,6,3.25,7a11.75,11.75,0,0,0,2.25,3q1.5,1.5,3.75,9a68.84,68.84,0,0,1,2.75,12.75,21.31,21.31,0,0,0,2,8,7.18,7.18,0,0,1,.75,5.5,6.86,6.86,0,0,0,0,4.5,14.91,14.91,0,0,1,.75,5.5c0,2.5-.09,5.42-.25,8.75a113.14,113.14,0,0,0,.25,12.75q.49,7.75,1,18t-3,13.5a16.53,16.53,0,0,0-4.75,8.75q-1.26,5.5-.25,9t-3.25,14.25Q1161.49,417,1161.5,419a4.52,4.52,0,0,1-1.75,3.5,4.19,4.19,0,0,0-1.25,4.25,4.24,4.24,0,0,1-1.25,4.25c-1.17,1-1.75,1.82-1.75,2.5a1.7,1.7,0,0,1-.75,1.5c-.5.32-.92,1.5-1.25,3.5a13.82,13.82,0,0,1-1.75,5,16.84,16.84,0,0,0-2,5.25c-.5,2.16-2.09,4.5-4.75,7s-4,4.25-4,5.25a3.06,3.06,0,0,1-.75,2.25,10.18,10.18,0,0,0-1.5,2,37.38,37.38,0,0,0-2.25,5.25l-4,3-.5-.5-3-1.5-1.5-6-2-1.5a12.36,12.36,0,0,0-1-4.5,11.51,11.51,0,0,1-1-3.5l-1.5-1-.5-1-1.5-1a7,7,0,0,1,1.75-2c.5-.34,1-3.18,1.5-8.5a43.63,43.63,0,0,0-.5-13.5,62,62,0,0,1-1.5-11.25,63.89,63.89,0,0,1,1-13.25q1.24-7.5,1-8a2.18,2.18,0,0,1-.25-1l-2,.5-2,2.5a20.08,20.08,0,0,1-4.25,2.75,14.09,14.09,0,0,1-3.5,1,17.74,17.74,0,0,0-4.5,1.5,87.32,87.32,0,0,1-9.25,3.25,76.69,76.69,0,0,1-9.75,2.5,24.84,24.84,0,0,1-7,0q-3.75-.5-7.5-4.5c-2.5-2.67-4.59-4.17-6.25-4.5s-3.67-.83-6-1.5a23.16,23.16,0,0,1-3,2,10.42,10.42,0,0,1-2,.75,4.37,4.37,0,0,0-2,1.25c-.67.67-2,.92-4,.75a14.43,14.43,0,0,1-5.75-1.75c-1.84-1-3-1.33-3.5-1a9.8,9.8,0,0,1-2.25,1l-7-5.5q-2-5.5-3-7.75t-1.75-10.5q-.75-8.25-.75-12.5c0-2.83-.09-5.33-.25-7.5a56,56,0,0,1,1-11.25,94,94,0,0,0,1.25-10v-4.5q-11.5,14.5-21.5,29.5l-5.5,5.5q-24,30-49.5,57-8,8-11.5,11.5a20.43,20.43,0,0,1-6,4.5,15,15,0,0,0-4.5,2.75A27.35,27.35,0,0,1,923,447c-3,1.32-5.34,2.41-7,3.25a46.25,46.25,0,0,1-5.5,2.25,19.06,19.06,0,0,1-6,1,13,13,0,0,1-4.25-.5l-3.75-1.5A26.89,26.89,0,0,1,895,448q-.51-1.5.5-5.25c.66-2.5,1.25-4,1.75-4.5A11.6,11.6,0,0,0,899,435.5l2,4c1.33.66,2.25,1.07,2.75,1.25a6,6,0,0,0,2.75-.25q2-.51,9.5-5.75c5-3.5,9.41-6.68,13.25-9.5s6.41-4.5,7.75-5a16.35,16.35,0,0,0,4-2.25l1-1a27.94,27.94,0,0,0,4.25-3.5q3.24-3,9.25-9.5,22.5-29.5,31-41.5t18-25.25Q1014,324,1025.75,309T1046,283a22,22,0,0,1-4-8.5l-2.5-1a2.21,2.21,0,0,0,1-.25c.33-.17,1.25.08,2.75.75a10,10,0,0,0,4,1,22.61,22.61,0,0,1,4.25.5q6.49-9.5,13-19.5a90.61,90.61,0,0,1-11.5,6.5,57.48,57.48,0,0,0-11,7q-6.51,5-8.5,5.25a6.31,6.31,0,0,0-3,1,12.14,12.14,0,0,1-1.5,1,17.54,17.54,0,0,1-2,.75l-1.5,1a52,52,0,0,1-8.75,4q-3.25,1-8.75,5t-8.5,6a41.34,41.34,0,0,1-5.75,3.25A27.34,27.34,0,0,0,987.5,301a32.48,32.48,0,0,1-8,5q-4.5,2-9.25,4a42.56,42.56,0,0,1-9,2.75q-4.26.75-10.5,2.25t-7.25,2.75a9,9,0,0,1-3,2.25q.5,7.5.5,10.5a16.6,16.6,0,0,0,1,5.75,6.83,6.83,0,0,1,.25,4.75,12,12,0,0,0-.75,4.25,24.21,24.21,0,0,1-.25,3.75c-.17,1-.34,2.25-.5,3.75a8.43,8.43,0,0,1-1.5,4,21.69,21.69,0,0,1-2,2.5,29.15,29.15,0,0,1-2.75,2.25L930,359q-3-5-5-7.75a33.64,33.64,0,0,1-4-8.5,83.94,83.94,0,0,1-3-10.5q-1-4.75-3-15.75l-1.5,1.5a28.25,28.25,0,0,0-2.5,4.5,19.1,19.1,0,0,1-4,5.75,9,9,0,0,0-2.75,4.75,9.05,9.05,0,0,1-2.75,4.75,16.82,16.82,0,0,0-3.25,3.75,41.71,41.71,0,0,1-5.25,6l-4,4-10.5,10L867,371l-1,3.5c-1.34.67-2.42,1.17-3.25,1.5a26.49,26.49,0,0,1-3.25,1,8.17,8.17,0,0,1-4.75-.5,18.83,18.83,0,0,1-4.5-2.25c-1.17-.83-2.59-1.92-4.25-3.25q-.51-1.5-.75-2.25a8.63,8.63,0,0,1-.25-2.5,7.16,7.16,0,0,1,.75-3.25q.75-1.5,2.25-5a4.82,4.82,0,0,1-1-2.5,1.61,1.61,0,0,0-1-1.5,8.06,8.06,0,0,1-2.5-3l1-3.5a4.87,4.87,0,0,1,1.75-1.25,8.63,8.63,0,0,1,2.5-.25h2.75a8.37,8.37,0,0,0,2.5-.5q3-5,4.75-7.75t1.25-10q-.51-7.25-1.5-14a103.83,103.83,0,0,1-.75-17.25q.24-10.5.5-10.75L859,285l-1-.5q.5-5.5.75-7.5c.16-1.33.25-4.08.25-8.25s.41-11.42,1.25-21.75a232.62,232.62,0,0,1,4-28.75q2.75-13.25,4-22.75T869,185a3.76,3.76,0,0,1-.5-1.5q-4-1.5-6.75-2.5t-9-5.5q-6.25-4.5-9.75-7.25a105.1,105.1,0,0,1-9-8.25l-3-6a12.47,12.47,0,0,0,5.5-1.5V151c2-.33,3.91-.67,5.75-1a30.43,30.43,0,0,1,8.5.25,28.3,28.3,0,0,0,9.25,0,27.27,27.27,0,0,0,6.5-2.25,48.41,48.41,0,0,0,6.75-4.25Q877,141,885,135l11-11.5q8.49-8,12.25-11a47.46,47.46,0,0,1,7-4.75,23.62,23.62,0,0,0,5.5-4c1.5-1.5,3.66-1.92,6.5-1.25s5.91,1.5,9.25,2.5a88,88,0,0,0,9,2.25,15.08,15.08,0,0,1,7,3.25q3,2.5,9,6.5a8.88,8.88,0,0,0,2,2.25,3.4,3.4,0,0,1,1.25,1.5,4.16,4.16,0,0,1,0,2,2.7,2.7,0,0,0,.5,2.25c.5.67,1.41,1.83,2.75,3.5a12,12,0,0,1-2.25,2.5,3.12,3.12,0,0,0-1,2.25,17.26,17.26,0,0,1-2.25,5.25,14.79,14.79,0,0,0-2,7.5,12.37,12.37,0,0,1-1.75,6.75,32.79,32.79,0,0,0-2.5,4.5,7.09,7.09,0,0,0-.5,3.75q.24,2-2.25,6.5a16.58,16.58,0,0,0-2.5,7.75,11.13,11.13,0,0,1-2,6.25,10.08,10.08,0,0,0-2,5.5,8.33,8.33,0,0,1-1.25,4.5c-.84,1.33-1.25,3.58-1.25,6.75s-.17,5.08-.5,5.75a3.35,3.35,0,0,0-.25,2.25,25.39,25.39,0,0,1,.25,4.25c0,2-.17,3.25-.5,3.75a2.07,2.07,0,0,0-.25,1.75,8.09,8.09,0,0,1-.25,3.25,75.29,75.29,0,0,0-1,9,47.49,47.49,0,0,1-2,11.25,20.77,20.77,0,0,0-1,9q.5,4.5,1.25,21.75T940,290a11.36,11.36,0,0,0-1,3.5v4l1.5,1q10-4,16.5-6t20.75-9.25Q992,276,1002.5,270a128,128,0,0,0,21-15.25q10.5-9.25,17.5-16.25a55.16,55.16,0,0,1,7-8.75,18.19,18.19,0,0,0,3.75-4.5,8.55,8.55,0,0,0,1.25-3V220.5q-4,.5-5.75.75A5.74,5.74,0,0,0,1044,223a6.38,6.38,0,0,1-4,1.75,20.15,20.15,0,0,0-6.5,2.25c-2.67,1.33-4.67,2.42-6,3.25s-3.17,2.08-5.5,3.75l-1-.5a16.57,16.57,0,0,1-3.5,1.75,3.72,3.72,0,0,0-1.75,1,8.06,8.06,0,0,1-2.75,1.5q-2,.75-6,0a106.29,106.29,0,0,0-12-1.25q-3-2.5-4.25-3.75t-1.75-4.5a7.7,7.7,0,0,1,.5-5,6.24,6.24,0,0,0,1-2.75,13.22,13.22,0,0,1,.5-3c-1-1.67-1.67-2.75-2-3.25a10.58,10.58,0,0,1-1-2,2.6,2.6,0,0,1,0-2.25c.33-.67.83-1.83,1.5-3.5,2-1.67,3.5-2.83,4.5-3.5a16.08,16.08,0,0,1,5.5-1.75,15.58,15.58,0,0,0,7.25-3.5Q1010,195,1016,189.5l3-3a8.06,8.06,0,0,1,2.25-.5q.75,0,4-3.5t10.75-11c-1.34.33-2.5.58-3.5.75a9.19,9.19,0,0,0-3.75,2q-2.25,1.75-3.75,1.5a14.9,14.9,0,0,0-4.5.25l-1.5,4-.5-.5a20.75,20.75,0,0,1-11-6.5l-6-10.5a61.25,61.25,0,0,1-4.5-11.75A114.78,114.78,0,0,1,993.25,134,105,105,0,0,1,992,118.75a102.91,102.91,0,0,0-.75-12.75,48.19,48.19,0,0,1,0-12,46.2,46.2,0,0,0,0-11.75A37.05,37.05,0,0,0,988.5,72a26.94,26.94,0,0,0-4.25-7c-1.5-1.67-2.34-2.92-2.5-3.75A24.65,24.65,0,0,0,981,58.5l3-.75c.66-.17,2.16.17,4.5,1A68.73,68.73,0,0,1,996,62a22.48,22.48,0,0,1,5.5,3.5c1,1,2.66,2.5,5,4.5a17,17,0,0,0,3.5,3.5,7.33,7.33,0,0,1,2.5,3.5q1,2.5,3.5,9a6.41,6.41,0,0,0,5,0V85a50.05,50.05,0,0,0,5.25,2.75,16.92,16.92,0,0,0,5,1.5,6.48,6.48,0,0,0,4.25-1,26.38,26.38,0,0,1,7-2.5,92.33,92.33,0,0,0,12.75-4.5A116.55,116.55,0,0,0,1073,71.5a200,200,0,0,1,19.5-11.25,161.73,161.73,0,0,1,18.75-8q9.24-3.26,18.5-5.75a62.5,62.5,0,0,1,16-2.5h7.5A4.09,4.09,0,0,0,1155,43.5ZM909.5,273a5.12,5.12,0,0,1-2-.25c-.34-.17-.67,0-1,.5a7.51,7.51,0,0,1-2,1.75A93.88,93.88,0,0,1,893,286.5l-1,.5a40.65,40.65,0,0,1-3.25,6.25,14.59,14.59,0,0,0-2,5.5,19,19,0,0,1-2.5,6.5,8.38,8.38,0,0,0-1.25,6q.5,3.25-1.5,9.5a53,53,0,0,0-2,7v1.75A151.93,151.93,0,0,0,913,305l-.5-3,1.5-.5q-1.5-14.5-2.25-19.75a39.46,39.46,0,0,0-1.25-6.5C910.16,274.42,909.83,273.67,909.5,273ZM913,167.5l-1.5,1.5a15.26,15.26,0,0,0-2,1.5,1.72,1.72,0,0,1-1.25.5c-.5,0-1.84,1.08-4,3.25s-3.75,3.42-4.75,3.75-2.67,1-5,2l-5,7.5a39.75,39.75,0,0,1,2,4.5q.5,1.5,2,4.75a17.74,17.74,0,0,1,1.5,7.5,16.87,16.87,0,0,0,1.25,7c.83,1.83,1,3,.5,3.5a1.7,1.7,0,0,0-.25,2,14.2,14.2,0,0,1,.75,3.5,10,10,0,0,0,.75,3.25,42.94,42.94,0,0,0,10.5,4q.5-8.5.75-12.75t1.75-13.5q1.5-9.25,2.25-18.5t.5-11a26.13,26.13,0,0,1-.25-3.75ZM896.5,239a35.53,35.53,0,0,1-.25,5,29.29,29.29,0,0,0-.25,4.5q0,3-.75,11c-.5,5.33-.84,8.75-1,10.25s-.25,2.42-.25,2.75q4-10.5,5.75-14.25a38.67,38.67,0,0,0,2.5-6.75q.75-3,2.75-9.5a24.77,24.77,0,0,0-8-2.5ZM1065,168.5a63,63,0,0,0-7.75,5,17.81,17.81,0,0,1-4.75,2.75q-3,1.25-7.75,5.75t-7,5.5A12.35,12.35,0,0,0,1034,190a30.11,30.11,0,0,1-6,4,48.31,48.31,0,0,0-8,5.5l-7.5,8a1.7,1.7,0,0,0,1.25.5,54.55,54.55,0,0,0,7.25-2.25q6.49-2.25,20.25-7.75t15.25-6.25a6.47,6.47,0,0,0,2.5-2.25q3-10.5,6.5-21ZM1018.5,95l-.5.5a32.45,32.45,0,0,0,1.5,8.5c.66,1.67.91,2.75.75,3.25a11.48,11.48,0,0,1-1.25,2.25l1.5.75q.5.25,1.25,4.75a49.3,49.3,0,0,1,.75,8,30.58,30.58,0,0,0,.5,6,17.16,17.16,0,0,1,.25,5,27.07,27.07,0,0,0,0,5.25c.16,1.83.25,5.42.25,10.75,2.33.33,4.25.67,5.75,1s3.5-.25,6-1.75a41.05,41.05,0,0,0,6.5-4.75q2.74-2.5,7.25-6v-1a6.13,6.13,0,0,1-5.5-1.5,25.59,25.59,0,0,1-2-5,26.22,26.22,0,0,1-.5-6,26,26,0,0,0-.75-6.75,11.2,11.2,0,0,1,0-5.75,79.59,79.59,0,0,0,1.25-12,16.84,16.84,0,0,1-5.25,1,24.48,24.48,0,0,1-6-1,31.62,31.62,0,0,1-5.75-2A44.31,44.31,0,0,1,1019,95Zm60,.5q-1,.5-5.5,2.25c-3,1.17-5.25,1.58-6.75,1.25a6.88,6.88,0,0,0-3-.25A7.47,7.47,0,0,1,1061,99a14.58,14.58,0,0,0-.25,4.5,28.42,28.42,0,0,1,.25,4.25,30.18,30.18,0,0,0,.75,6.25q.75,3.5.25,12.5l2-1a115.18,115.18,0,0,1,9.25-11.25,33.49,33.49,0,0,0,5.5-7.25q2.25-4,2.25-6a22.72,22.72,0,0,1,.5-4.5Zm.5,232a19.34,19.34,0,0,1-2.25,3.25c-.5.5-1.17,1.25-2,2.25a6,6,0,0,0-1.25,4,5.23,5.23,0,0,1-2.25,4.25,9.7,9.7,0,0,0-3.25,5,42.39,42.39,0,0,0-1.5,8q-.51,4.75-.75,10.75a58.89,58.89,0,0,0,0,8,26.37,26.37,0,0,0,1.25,5l10.5-9.5a84.41,84.41,0,0,1,8.75-9.25,29.87,29.87,0,0,0,5.25-5.75c1.66-2.33,2.5-4,2.5-5a3.06,3.06,0,0,1,.75-2.25A17.14,17.14,0,0,0,1097,342a114.23,114.23,0,0,1-16.5-14.5Zm46-39q-6.51,3.5-12.5,7a28.84,28.84,0,0,1-5.5,8.5,79.18,79.18,0,0,0-12.5,11l.5,1.5q6.49,1.5,10,2a24.15,24.15,0,0,1,6.75,2,16.81,16.81,0,0,1,4.75,3l4,4a28.7,28.7,0,0,0,3,7.25,6.31,6.31,0,0,1,.75,5.25,7.44,7.44,0,0,1-2,4,13.22,13.22,0,0,0-2.75,3.5l-1.5,1-6,6-2,1.5c-.67,0-1.09-.08-1.25-.25s-.84.25-2,1.25a5,5,0,0,1-2.75,1.5l-2,1.5q-7.5,7-10.75,9.5a38.82,38.82,0,0,1-6.25,4,24.13,24.13,0,0,0-5.25,3.5,10.22,10.22,0,0,1-4.5,2.5q-2.25.5-3.75.75a3.87,3.87,0,0,0-2,.75,5.49,5.49,0,0,1-2,1l-.5,2,1,1.5a101.46,101.46,0,0,1,12.5-4.75q4.5-1.25,9.75-2.5a67,67,0,0,1,13-1.5,55.74,55.74,0,0,1,13.5,1,51.27,51.27,0,0,1,7.5,2c1.16.5,2.41,1.08,3.75,1.75q2-28,1.75-40t-1-27.75q-.75-15.75-1.5-18.5c-.5-1.83-1.09-3.92-1.75-6.25Zm-13.5-108-3.5,7-9,7.5a3.41,3.41,0,0,0,.25,1.5c.16.33-.17,1.08-1,2.25a14.59,14.59,0,0,0-2,5.5c-.5,2.5-.59,3.92-.25,4.25a262.51,262.51,0,0,1,18.5-27.5l-1.5-1Zm14-98.5c-.34,0-3,.42-8,1.25s-8.25,1.58-9.75,2.25S1104,87.33,1101,89a5.43,5.43,0,0,0,.25,1.75,3.86,3.86,0,0,0,1,1.5A29.15,29.15,0,0,1,1104.5,95a7.3,7.3,0,0,1,1.5,4.5,8.64,8.64,0,0,1-.5,3.5,5.49,5.49,0,0,0-.5,2.5l.5,1q3-3,4.75-5c1.16-1.33,2.83-3.17,5-5.5S1120.83,89,1125.5,82Zm31.5,85.5a61.84,61.84,0,0,0-8.5,6q-5,5-7,6.75A41.85,41.85,0,0,0,1137,185a20.93,20.93,0,0,0-3.5,5.5,11.76,11.76,0,0,1-2.5,4,25.09,25.09,0,0,0-3.25,4.25Q1126,201.5,1121,209.5l.5.5a44.94,44.94,0,0,0,5.75-2q2.25-1,13-4.25t15.5-3.75a64.9,64.9,0,0,0,10.25-2l2-1.5-3.5-2.5a35.2,35.2,0,0,0-4-4.25,6,6,0,0,1-2-3.25q-.51-2-1.5-6l.75-.75a3.23,3.23,0,0,0,.5-1.25,12.42,12.42,0,0,0-.25-4q-.51-3-1-6.5Z"/><path d="M1136.5,526.5h1a15.63,15.63,0,0,1,2.5.5c1.33.33,2.08.42,2.25.25a5.28,5.28,0,0,1,1.25-.75,7.53,7.53,0,0,0,5.75.5,3.57,3.57,0,0,1,3.5.75,3.69,3.69,0,0,0,3.25,1q2-.25,4.25,2.75T1164,535a38,38,0,0,1,4.5,2l3,3,11.5,9,1,3.5c-.67.67-1.34,2.58-2,5.75s-1.42,5.17-2.25,6-2.09,1.92-3.75,3.25a30.85,30.85,0,0,0-5.5,1.75c-1,.5-2.42.42-4.25-.25s-3.25-.5-4.25.5a5.42,5.42,0,0,1-4.5,1.25c-2-.17-4.09.83-6.25,3a15.62,15.62,0,0,1-8,4.25q-4.76,1-6,2.25a3.85,3.85,0,0,1-2.75,1.25c-1,0-2.84,1-5.5,3L1115,595v1l5-2q2.49-1,20.75-5t40-7.25q21.75-3.25,35-3.5t14.25-1a12.43,12.43,0,0,1,2-1.25l.5,1a3.9,3.9,0,0,1,1-.75,8.26,8.26,0,0,1,2-.5c1-.17,2.16.33,3.5,1.5a9.07,9.07,0,0,0,5.5,2,20.09,20.09,0,0,1,6,1.25,30.53,30.53,0,0,1,6,3.5l2.5,6a16.8,16.8,0,0,1-3.25-.25c-.84-.17-2,.33-3.5,1.5s-2.92,1.5-4.25,1-3.67-.67-7-.5a91.64,91.64,0,0,0-11.75,1.5q-6.75,1.25-11,2.5c-2.84.83-5,1.08-6.5.75a10.78,10.78,0,0,0-5.75.75c-2.34.83-4,1.17-5,1a3.33,3.33,0,0,0-2.75.75q-1.26,1-5.25,1.75T1176.25,605a190.54,190.54,0,0,1-21,4.75,91.76,91.76,0,0,0-20,6q-11.76,4.75-15.75,4.75t-16,5.25q-12,5.25-20.5,9.25a95,95,0,0,0-12.5,6.75q-4,2.75-11,8.25l-8,9.5-9,7.5L1032,680.5l1.5,1q5.49-2,9-3a32.25,32.25,0,0,1,8.75-1c3.5,0,5.91.42,7.25,1.25a35.27,35.27,0,0,0,6,2.75c1,3,1.66,5.25,2,6.75a15.89,15.89,0,0,0,2.25,5,16.36,16.36,0,0,1,2.25,5,8.42,8.42,0,0,0,1.5,3.5,3.79,3.79,0,0,1,.75,3,12.28,12.28,0,0,0,.75,5,37,37,0,0,1,1.25,8.75,51.16,51.16,0,0,1,0,7.25c-.17,1.17-.42,2.58-.75,4.25a132.73,132.73,0,0,1,20-15.5l1-2a58.17,58.17,0,0,1,7.5-2,68.23,68.23,0,0,1,10.5-1.75,20.12,20.12,0,0,1,7.25.75,20.55,20.55,0,0,1,5.75,2.75,31.92,31.92,0,0,0,3.5,2.25,195.8,195.8,0,0,0,12-44,2,2,0,0,0,.5,1.5c.33.33.41,1.17.25,2.5s.41,2.92,1.75,4.75a6.08,6.08,0,0,1,1,5.75,62.69,62.69,0,0,0-2,10h1q0,1-1,13.75t-.75,15a7.61,7.61,0,0,1-.25,3.5,9.18,9.18,0,0,0-.25,4,23.14,23.14,0,0,1-.75,7,48.39,48.39,0,0,0-1.25,8.25,25.8,25.8,0,0,1-1,6.25,21.4,21.4,0,0,0-1,4.5q-.26,2.25-2.5,11.5t-3,14a50.48,50.48,0,0,0-.75,6.5,15.63,15.63,0,0,1-.5,3.75,15.14,15.14,0,0,0-.5,3.75c0,1.17-.09,2.58-.25,4.25a14.59,14.59,0,0,1-1,4.25Q1129,807,1127,811.5h-1.5L1122,808a4.93,4.93,0,0,1-2.5.75,3.4,3.4,0,0,1-3-.75,2.07,2.07,0,0,0-2-.75,1.49,1.49,0,0,1-1.5-.25,2.07,2.07,0,0,0-1.5-.5,5.43,5.43,0,0,1-1.75-.25A25.69,25.69,0,0,1,1107,805l-4.5-8-2-.5V795a6.26,6.26,0,0,0-1.25-2.25,6,6,0,0,1-1.25-3.5q0-1.75.75-2.25a5.42,5.42,0,0,0,1.5-1.75c.5-.83.5-2.67,0-5.5a51.84,51.84,0,0,1-.5-10.75q.24-6.5-.25-14.5a159.58,159.58,0,0,1,.25-19.75q.75-11.75.25-12.5a14.53,14.53,0,0,1-1-1.75,89.61,89.61,0,0,0-10,7q-5,7-7.25,9.5a57.63,57.63,0,0,0-4.5,5.75,26.46,26.46,0,0,0-3,5.25q-.75,2,0,6a31.15,31.15,0,0,1,.5,7.75,44.6,44.6,0,0,0,0,6.75c.16,2,.25,4.83.25,8.5a85.17,85.17,0,0,1-1,12.25q-1,6.75-.25,9.75a18.75,18.75,0,0,1,0,7.5q-.75,4.5-2,15.5t-1.5,21.5q-.26,10.5-.75,16a49,49,0,0,1-2,10.25,47.77,47.77,0,0,1-4.25,9.5q-2.76,4.75-3,7.5a10.73,10.73,0,0,1-1.5,4.75,17.2,17.2,0,0,0-2,5.5q-.75,3.5-2.75,10c-1.34,4.33-2.5,6.83-3.5,7.5a8.88,8.88,0,0,0-2.5,2.5l-4-3.5a8.43,8.43,0,0,1-1.75-3.5,10,10,0,0,0-2.5-4.25,6.54,6.54,0,0,1-2-4,6.84,6.84,0,0,0-1-3.25,19.56,19.56,0,0,0-1.75-2l-1.5-1,.75-.75a9.31,9.31,0,0,0,.75-2.5,7.16,7.16,0,0,0,0-3.75,6,6,0,0,1-.25-3q.24-1.5-1.5-5.75a69.82,69.82,0,0,1-3-9q-1.26-4.75-.5-15t-.25-12.25a37.22,37.22,0,0,1-2-5l1.5-2,2.25,1.5a17.21,17.21,0,0,1,2.25,2,6.1,6.1,0,0,0,3.75,1.75,8.34,8.34,0,0,0,3,0,3.27,3.27,0,0,0,1.25-.75q.49-17.5,1-35l-4,1-1,1.5a2.15,2.15,0,0,1-1-.25q-.51-.25-1.5.75a3.72,3.72,0,0,1-2.75,1,6,6,0,0,0-3.5,1.25q-1.76,1.25-3,.75a3,3,0,0,0-2-.25,4.63,4.63,0,0,1-1.5.25,8.06,8.06,0,0,1-2.25-.5l-2.5-2-1-1-1.5-2a7.4,7.4,0,0,1-5-3.5c-1-1.33-1.75-2.42-2.25-3.25s-1.17-3.17-2-7a64.54,64.54,0,0,1-1.5-10.25q-.25-4.5-.25-6V773l-1-2c-.34,3.33-.5,5.5-.5,6.5a5.74,5.74,0,0,1-1.25,3.25,12.4,12.4,0,0,0-1.75,5.5,39.52,39.52,0,0,1-2.75,9.25,38,38,0,0,0-2.75,9.75,28.07,28.07,0,0,1-2,7.75,15.4,15.4,0,0,0-1.5,5.75,6.67,6.67,0,0,1-1,3.75q-1,1.5-2.25,12.25t-2,14.75a43.42,43.42,0,0,0-.5,9.75,32.91,32.91,0,0,1-.5,8.75c-.5,2-1.09,4.83-1.75,8.5l-1-1-3,2.5a15.44,15.44,0,0,1-2.25-1.75c-.5-.5-1.59-.75-3.25-.75a17.27,17.27,0,0,1-5-.75,14.93,14.93,0,0,1-4-1.75,17,17,0,0,1-3.5-3.5q-2.5-4-4-6c-1-1.33-2-3.92-3-7.75a98,98,0,0,1-2.25-17,214.12,214.12,0,0,1,3.5-53q2.75-14.25,5.75-27a174.22,174.22,0,0,1,6.75-22.5,133.6,133.6,0,0,1,5.25-12.5l4.5-8.25,8.5-7,9-15q6-10,10.5-16.5a66.06,66.06,0,0,1,8.75-10.5c2.83-2.67,4.16-4.08,4-4.25a1,1,0,0,1-.25-.75,41.77,41.77,0,0,1-4.25,1.25,3.8,3.8,0,0,0-2,1,4.78,4.78,0,0,1-2.75,1c-1.34.17-3.75,1.08-7.25,2.75a35.72,35.72,0,0,0-7,4,16.52,16.52,0,0,1-3.25,2.25q-1.5.75-6.5,3.75l-.5-1h-1q-.51,0-3.75,2.5c-2.17,1.67-4,2.58-5.5,2.75a6.17,6.17,0,0,0-4,2.25,9.05,9.05,0,0,1-4.75,2.75,22.55,22.55,0,0,1-3.75.75H960l-1.5,2c-.67.33-1.42.67-2.25,1a38.33,38.33,0,0,1-4.25,1.25q-3,.75-8.5,4.25t-7.25,3a2.39,2.39,0,0,0-2.75.75A17.36,17.36,0,0,1,929,703a42.9,42.9,0,0,1-8.25,3.5,23.23,23.23,0,0,0-8.25,4.5c-2.34,2-4.25,2.83-5.75,2.5s-3.25.42-5.25,2.25-5.25,3.58-9.75,5.25-7.67,2.58-9.5,2.75a22.25,22.25,0,0,0-5,1,17.57,17.57,0,0,1-5.5.75,19.3,19.3,0,0,0-5,.5,13.77,13.77,0,0,1-4.75.25,65.65,65.65,0,0,1-7.75-1.25A116.33,116.33,0,0,1,842,721.5c-5-1.67-7.84-2.58-8.5-2.75s-1.5-.42-2.5-.75l-2-1.5-3.5-2-2.5-3-4-3.5.5-1a41.22,41.22,0,0,0,5,.5,10.22,10.22,0,0,0,3.5-.75,28.5,28.5,0,0,1,6.25-1.25,113.19,113.19,0,0,0,13.75-3,152.34,152.34,0,0,0,22-8q12.5-5.5,26.75-12.5T925,669.5q14-5.5,19.25-8.75t23-11Q985,642,1002.75,635.5t23.25-9q5.49-2.5,13.5-5.5,20-24,41-47h-1.25q-.75,0-5.75,2.5t-9,4.25a67.67,67.67,0,0,0-11,6.75L1052,589l-3,1-2,3a38.53,38.53,0,0,1-8.5,6.5l-.5,1.5-3,1.5-1,1-4.5,3.5v2l-2,1.5a2.31,2.31,0,0,1-.25,1,9.42,9.42,0,0,1-1.5,1.75q-1.26,1.25-4.75,5.25l-2,1-.75-.75A5.78,5.78,0,0,0,1017,618a2.28,2.28,0,0,0-1.75-.25,2.27,2.27,0,0,1-1.75-.25l-1,1.5-2.25-.75a3.83,3.83,0,0,0-2.25.25,10.65,10.65,0,0,1-5-.25q-3.51-.75-5.5-1.25-5-7.5-7-10.25a23.4,23.4,0,0,1-3.25-6.5A28.52,28.52,0,0,0,984,593.5a18.54,18.54,0,0,1-2.75-7,22.87,22.87,0,0,1,0-8.25Q982,574,983,561.5l2,.5,1-4.5,2.25,2.25a8.11,8.11,0,0,1,1.5,2.5,32.08,32.08,0,0,0,3,5Q995,570.5,1000.5,580a9,9,0,0,0,2.25.75q1.25.25,8.5-1.25a102.67,102.67,0,0,0,15.75-4.75,174.67,174.67,0,0,1,22.75-6.5q14.25-3.25,32.5-8.75t21-8q2.74-2.5,5.25-4.5l3.5-4,1.5-1a64,64,0,0,0,7-9.5h3l4.5-5a25.77,25.77,0,0,0,5-.5l2.5-1.5ZM1025.5,687l-2.5,1c0,1-1.09,3-3.25,6a32.41,32.41,0,0,0-4.75,9.25,48.86,48.86,0,0,0-2,9,76.43,76.43,0,0,1-2,10q-1.5,5.75-1.25,6.5t.75,2.25a47.86,47.86,0,0,0,5.25,2,39.77,39.77,0,0,1,5.75,2.5,36,36,0,0,1,7,4.5q3,2.5,8.5,7l2.25,2.25a12.4,12.4,0,0,1,1.75,2.5,6.24,6.24,0,0,1,1,2.75,4.35,4.35,0,0,0,.5,2,4.11,4.11,0,0,1,.25,2.5,9.15,9.15,0,0,1-.75,2.5,8.82,8.82,0,0,0-.75,2.75,5.74,5.74,0,0,1-1.75,3.25,8.69,8.69,0,0,0-2,2.75,47,47,0,0,0-1.5,5.25l1,.5a33.06,33.06,0,0,1,5.5-6q2.49-2,1.75-11.25a167.89,167.89,0,0,0-2.75-19.25,107.15,107.15,0,0,1-2.25-16.75q-.26-6.75-1-16.25t-2.5-11a16,16,0,0,1-3.25-4l-7-4Zm124-72.5c.33.67.58,1,.75,1a4.62,4.62,0,0,0,1.25-.5c.66-.33,2.75-.58,6.25-.75a19.34,19.34,0,0,1,9.75,2q4.5,2.25,8.75,4.25a43.92,43.92,0,0,1,7,4q2.74,2,7.75,6a16.69,16.69,0,0,0,2.75,3c.83.67,1.58,2.33,2.25,5a30,30,0,0,1,.75,8.75c-.17,3.17-.75,5.33-1.75,6.5a6,6,0,0,0-1.5,4,18.56,18.56,0,0,0,.25,3.5,5.32,5.32,0,0,1,0,2.25,1.47,1.47,0,0,0,.25,1.5,3.63,3.63,0,0,0-.75,1q-.26.5.75,14.25a168.4,168.4,0,0,1,.25,24q-.75,10.25.5,15.25t.25,18.25q-1,13.25,0,37.5t-.25,49.25q-1.26,25-2.75,47.25t-4.75,35.5q-3.26,13.25-4.75,17.25T1176,942q-5,13.5-8.5,18.75a69.31,69.31,0,0,0-6.75,13.75q-3.26,8.49-5.75,14a3.74,3.74,0,0,1-4.5,0,8.45,8.45,0,0,1-1.25-2.5c-.17-.68.16-2.84,1-6.5s2.08-13.43,3.75-29.25,2.75-24.5,3.25-26a11.4,11.4,0,0,0,.5-4.75q-.26-2.5,2-20.75A253.38,253.38,0,0,0,1162,869a160,160,0,0,1,1-19.5,145.17,145.17,0,0,0,1-17.75q0-9.75,3-29.75t2.75-64.5q-.26-44.5-1.25-64t-2.25-31Q1165,631,1163.5,630a24.49,24.49,0,0,1-3.5-3l-15-10A4.9,4.9,0,0,0,1149.5,614.5Z"/><path d="M251,888.48h5a7.74,7.74,0,0,1,3.5.75L265,892l4.25,4.25q1.74,1.75,5.5,8.25a40,40,0,0,1,4.75,11.25q1,4.75,2.75,6.75c1.16,1.33,2,3.58,2.5,6.75a26.62,26.62,0,0,1,.5,6.5,11.47,11.47,0,0,0,.5,4.5q.75,2.74-1,10.5a64,64,0,0,1-3,10.5,12.19,12.19,0,0,0-1.25,3.5V967q7-5.51,9.5-6.75a24,24,0,0,0,5.25-3.75A84.41,84.41,0,0,1,306,949q8-5,18-10a136.3,136.3,0,0,1,13-6,16.09,16.09,0,0,0,4-1.75,34.88,34.88,0,0,0,3-2.75l2-2.5a3.31,3.31,0,0,0,3,.5l1,1.5,1-1.5a15.44,15.44,0,0,1,2.25,1.75,2.07,2.07,0,0,0,2,.5,3.43,3.43,0,0,1,2.5.5,11.86,11.86,0,0,0,3.5,1.25,10.87,10.87,0,0,1,4,1.75c1.16.83,3.25,2.08,6.25,3.75a24.49,24.49,0,0,0,3.5,3,6.32,6.32,0,0,1,2.25,3.75,32.14,32.14,0,0,1,1,5.5c.16,1.83,0,3-.5,3.5A6.76,6.76,0,0,0,376.5,955q-5.5,4.5-11.5,3.5l-2,5a52.1,52.1,0,0,1-8.5,5.5l-7.5,7.5-3,1a23.2,23.2,0,0,1-3.75,5A3.06,3.06,0,0,0,339,985a9.53,9.53,0,0,1-.5,3,10.38,10.38,0,0,0,3.75.25,13.47,13.47,0,0,1,3.75,0,6,6,0,0,1,3.75,1.5,19.8,19.8,0,0,0,3.75,2.75,40.26,40.26,0,0,1,1.75,5.75q.75,3.25,1,5.25a23.48,23.48,0,0,0,.75,3.75q.5,1.75,1.5,4.75H360l2.5-2q10.5-6.5,21.5-14.5a3.54,3.54,0,0,1-2.5-1.5c-.34-.67-1.25-1-2.75-1s-3.92-.17-7.25-.5h1a14.71,14.71,0,0,1,2.75-1.5,12.44,12.44,0,0,1,4.75-.25,9,9,0,0,0,5.75-1.25Q388,988,392.5,988a31.55,31.55,0,0,0,7.5-.75,13,13,0,0,1,4.75-.5,25.93,25.93,0,0,0,3.75.25,15,15,0,0,0,1,3,16,16,0,0,0,2.75,3.25,9.73,9.73,0,0,1,2.75,4.25,16.6,16.6,0,0,1,.5,4,3.37,3.37,0,0,1-1.5,3c-1,.67-2.34,2.33-4,5q-2.5,2-8.25,6.25t-10,5.25a23.61,23.61,0,0,0-9,4.75q-4.75,3.75-8,3.75c-2.17,0-3.67.42-4.5,1.25A12.72,12.72,0,0,1,367,1033l-6,3q-1.5,2-2,8.25c-.34,4.17-.5,7.58-.5,10.25s-.09,4.92-.25,6.75a20.24,20.24,0,0,1-.75,4.25l.5,1.5,8.5-3.5,1.5-2.25a6.24,6.24,0,0,1,1.5-1.5,2,2,0,0,0,1-1.5,14,14,0,0,0-.5-2.75l6,2.5,1-2.5,2.5,1.25a3.41,3.41,0,0,0,1.5.25,8.37,8.37,0,0,1,2.5.5,9.53,9.53,0,0,0,3,.5,3.38,3.38,0,0,1,2.5,1l3.5,3.5c.66,1.33,1.25,2.42,1.75,3.25s.91,3,1.25,6.5-.59,6.17-2.75,8a34.4,34.4,0,0,0-5,5q-1.75,2.25-6.75,8.25l-4.5,3L364,1113l2,3,5,1.5c.33-.33.58-.5.75-.5s1.16.08,3,.25a9.18,9.18,0,0,1,4.75,1.75,8.43,8.43,0,0,0,4,1.75c1.33.17,2.16.58,2.5,1.25a5.63,5.63,0,0,0,2,2q-.51,1.5-.75,2.25a7.1,7.1,0,0,0,0,2.75,6.27,6.27,0,0,0,1.25,3.25,2.77,2.77,0,0,1,.25,3Q388,1137,386.5,1140t-3,6.5l-1.5.5-2.5,4.5-1.5.5-3.5,5.5h-2l-.5,1.5a6.22,6.22,0,0,0-4.5,2l-1.5,2.5q4.5,0,8.25.25t16.5-.25a109,109,0,0,1,21.75,1q9,1.5,13.75,4t9.25,5l5.5,8-.5.5c1,3,1.66,5,2,6a8.31,8.31,0,0,1,.5,2.5,6.11,6.11,0,0,0,1,2.75,22,22,0,0,0,2,3,3.79,3.79,0,0,1,.75,3,3.59,3.59,0,0,0,.5,2.75,16.53,16.53,0,0,1,1.75,4.5l-1.5,1,1,4-2.5-1a11.28,11.28,0,0,1-2.25-.25,5,5,0,0,0-2.25,0,4,4,0,0,1-2,0,4.56,4.56,0,0,0-2.5.25v3h-3.75a32.83,32.83,0,0,0-3.5.25q-2.25.26-7.25-1.25a62.17,62.17,0,0,0-13.75-2,147.4,147.4,0,0,0-21.75.75,129.37,129.37,0,0,0-22,3.75q-9,2.51-12,3a36.8,36.8,0,0,1-6,.5l-1,1.5c-3,.67-5.09,1.08-6.25,1.25a18.1,18.1,0,0,0-3.75,1,10.22,10.22,0,0,1-3.5.75,5.59,5.59,0,0,0-2.5.5,10.57,10.57,0,0,0-2.5,2,2.15,2.15,0,0,1-1-.25c-.34-.17-.84,0-1.5.5s-2.75.67-6.25.5A47,47,0,0,0,308,1227q-5.5,1-7.75-2t-4.5-2.75A4.34,4.34,0,0,1,292,1221a5.7,5.7,0,0,0-3-1.75,20.53,20.53,0,0,1-4-1.25,5.28,5.28,0,0,0-1.25.75c-.17.17-.25,1.42-.25,3.75s.25,6.17.75,11.5.5,9,0,11a17.12,17.12,0,0,0-.5,5.75c.16,1.83.25,4.33.25,7.5a56.15,56.15,0,0,0,.75,9.25,37.87,37.87,0,0,1,.5,8.5,25.51,25.51,0,0,1-.75,5.5c-.34,1-.67,2-1,3q.5,1,1.75,12.5t1.25,13.5a17,17,0,0,0,.25,3.25,19.37,19.37,0,0,1,.25,3.5,31.73,31.73,0,0,0,.5,5.25q.5,3,.75,6.75c.16,2.5.25,4.91.25,7.25a53.18,53.18,0,0,0,.25,5.75,10.67,10.67,0,0,1,0,3.25,4.47,4.47,0,0,0,.25,2.5l-2,2.5,2,7.5-1,1.5a17.69,17.69,0,0,1-5.5-1l-6-9-1.5.5-1.5-3-5-2-7-9-2-1-1.5-3,1.5-2.5c0-.34-.59-3.09-1.75-8.25s-2.17-10.93-3-17.25a127.93,127.93,0,0,1-.5-23.25q.75-13.76,3.5-38.75t4.5-34.25q1.74-9.26,1.5-9.75a2.18,2.18,0,0,1-.25-1c.33-.33.5-.58.5-.75s.33-4.58,1-13.25a269.56,269.56,0,0,1,3.5-27q2.49-14,4-30t7.5-60.5a26,26,0,0,1-4-2.5l5-2.5q2-10,2-12.75a9,9,0,0,1,1.75-5.25c1.16-1.67,2.08-4.33,2.75-8s2.75-10.75,6.25-21.25,5.25-16,5.25-16.5V995l-5.5,5a64.65,64.65,0,0,0-16,18.5h-2c-.34,0-.92-.58-1.75-1.75a3.64,3.64,0,0,0-3-1.75,8.12,8.12,0,0,1-3-.5,6.44,6.44,0,0,1-2.25-1.5,4.49,4.49,0,0,0-2.5-1.25,9,9,0,0,1-2.5-.75c-.67-.33-1.84-.83-3.5-1.5q-3-3-4.25-4.5a21.2,21.2,0,0,1-2.75-5,27.72,27.72,0,0,1-2-7.75,35.1,35.1,0,0,0-1.25-6.5c-.5-1.5-1.09-3.58-1.75-6.25q-3,2-11.75,5.25t-11.5,4.5a26,26,0,0,1-5,1.75,8.7,8.7,0,0,0-3.75,1.75,31.66,31.66,0,0,1-5.5,3.25,43,43,0,0,1,3.25,4.25c.5.83,1.08,1.83,1.75,3a19.4,19.4,0,0,1,1.75,4.75,38.34,38.34,0,0,1,1,6.5,10.3,10.3,0,0,1-1,5.75c-.84,1.5-1.17,2.42-1,2.75a5.33,5.33,0,0,1,.25,2l8-3.5,3-2.5,4.5-2,1.5,1a15.87,15.87,0,0,0,2-5,15.44,15.44,0,0,0,5.5,2l2.5-1.5q.5.49,5.75,1.5c3.5.67,5.66,1.5,6.5,2.5a14.6,14.6,0,0,0,3.75,3c.66,1,1.33,1.92,2,2.75s.83,2.5.5,5a13.47,13.47,0,0,1-1.5,5.25,19.17,19.17,0,0,0-2,4.5,21.46,21.46,0,0,1-3.75.5,9.06,9.06,0,0,1-2.25-.25,4.55,4.55,0,0,0-2.75.5,35.9,35.9,0,0,0-4.25,2.25l-3,3.5-11,8.5-1,2.5-2.5,1-2,2-5.5,4.5.5,1a23.33,23.33,0,0,0,4.5.5,15.87,15.87,0,0,1,4.5.75c1.66.5,2.91.83,3.75,1l3.75.75c.66,1,1.25,1.83,1.75,2.5a6.05,6.05,0,0,1,.75,3.5,25.45,25.45,0,0,1-1,6.25q-1,3.75-2.25,7.25a25.8,25.8,0,0,1-4.25,7.25q-3,3.75-2.75,5a5.32,5.32,0,0,1,0,2.25q-.25,1-3.25,3.25T214,1115v1a14.84,14.84,0,0,0,3.5.5q1.5,0,7,2a43.34,43.34,0,0,1,9.25,4.5q3.75,2.51,10.25,6.5l.5,2.5,2.5,1c1.66,3.33,2.91,5.67,3.75,7a14.41,14.41,0,0,1,1.75,5.5,21.15,21.15,0,0,1-.5,7.75q-1,4.24-3,5.75a56.38,56.38,0,0,0-5.5,5l.5,4.5-1,.5-2.5-2.5L237,1171l-1.5.5L231,1176l-1.5.5a11.86,11.86,0,0,0-1.5-2.5,1.67,1.67,0,0,1-.5-1.25,14.46,14.46,0,0,1,1-3.5,12.92,12.92,0,0,0,.5-6.25q-.51-3.49-5-7.75t-7.25-13.75q-2.76-9.49-4-10.75l-2.25-2.25a11.39,11.39,0,0,1-1.75,2.75c-.5.5-.67,1.83-.5,4a77.89,77.89,0,0,0,2.25,11.25,44.62,44.62,0,0,1,1,16.25,156.67,156.67,0,0,0-.75,21.25,180.53,180.53,0,0,0,1.25,20.25,97.23,97.23,0,0,1,1,13V1225q-2,3-5.5,13.75t-5.25,14A42.35,42.35,0,0,1,199,1258l-2,2-2-2q-2.5-5-4-7.5a19.64,19.64,0,0,1-2.25-6q-.75-3.49-3.25-13l-1.5-1q-1.5-3-2-4.25a22.88,22.88,0,0,0-2.5-4A37.63,37.63,0,0,0,176,1218a63.65,63.65,0,0,1-5-6.25c-2.34-3.17-3.84-5.08-4.5-5.75a11.7,11.7,0,0,1-2.25,1.75c-.84.5-1.5,2-2,4.5a16.16,16.16,0,0,0-.25,6.25,14,14,0,0,1,0,5.25,9.42,9.42,0,0,1-2,4.5,5.81,5.81,0,0,0-1.25,4.5,13.92,13.92,0,0,1-.5,5.25,6.42,6.42,0,0,1-1.75,3.25,7.7,7.7,0,0,0-2,2.75,13.51,13.51,0,0,1-10.5,3.5q-4.5-4.5-6.25-6.5a45.81,45.81,0,0,1-4.75-7.5,120.68,120.68,0,0,1-5.5-11.5,26.61,26.61,0,0,1-2-12.5,46.32,46.32,0,0,1,2-11,22.83,22.83,0,0,1,4-7.5c1.66-2,2.5-3.17,2.5-3.5V1186a56,56,0,0,1-15,8.5l-.5,1-2.25.75A7.41,7.41,0,0,0,114,1198a9.51,9.51,0,0,1-4.5,2.25,14,14,0,0,1-5,.5,9.3,9.3,0,0,0-3.75.25,9.18,9.18,0,0,1-4.25,0,10,10,0,0,1-5-3,11.94,11.94,0,0,0-5.25-3.25,23.85,23.85,0,0,1-4.25-1.5L77.5,1191l-.5-2a19,19,0,0,1-2.5-1,21.79,21.79,0,0,1-2.75-1.75,31.69,31.69,0,0,1-5.25-5.75,4,4,0,0,1-.5-1.75c0-.5-.42-.92-1.25-1.25a4.76,4.76,0,0,1-2.25-2.5l2-1a10.91,10.91,0,0,1-2-4.5,2.81,2.81,0,0,0,2,.25,6.53,6.53,0,0,1,1.5-.25,4,4,0,0,0,1.25-.25,3.83,3.83,0,0,1,2.25.25l1-2.5,1.5-.5-.5,2,.5,1.5q1.5,0,7.5-3.5t17-10.5l1.5-1.5a11.61,11.61,0,0,0-6,.5l.5-1q4.5-3.49,7.25-5.25T157,1102l.5-1,17.5-17.5a21.85,21.85,0,0,1-2-3,3.3,3.3,0,0,0-1.5-1.5,2.48,2.48,0,0,1-1.25-2,28.78,28.78,0,0,0-2.25-5.75,57.38,57.38,0,0,1-3.5-10q-1.5-5.74-3-7.25l-3-3q-.51,1-4.5,10.25t-6.25,11.5a10,10,0,0,0-2.75,4,19,19,0,0,1-2,4.25,36.69,36.69,0,0,0-2.75,5.75,21.78,21.78,0,0,1-4.5,6.75q-3.25,3.49-4.75,10.25t-3,8.5q-1.5,1.76-4.5,4.75l-3.5,1.5c-.67-1-1.25-1.83-1.75-2.5s-1-2.42-1.5-5.25-.92-5.58-1.25-8.25a51.62,51.62,0,0,1-.5-6,2.93,2.93,0,0,1,1.25-2.75c.83-.5,1.5-1.67,2-3.5s2.25-5.33,5.25-10.5,7.75-12.92,14.25-23.25S148,1040.06,149,1038.23a30.74,30.74,0,0,0,2.5-6.25.82.82,0,0,1-1,.25c-.34-.17-1.09.25-2.25,1.25a16.71,16.71,0,0,1-5.5,2.75,23.68,23.68,0,0,0-6.5,3.25,16,16,0,0,1-4.5,2.5,5.67,5.67,0,0,0-2.25,1,3.27,3.27,0,0,1-1.25.75l-2.25.75-2,2.5a15,15,0,0,1-2.75,1.5,9.84,9.84,0,0,1-3.5.5,20.9,20.9,0,0,1-4.5-.5,20.69,20.69,0,0,0-7,.25,19.1,19.1,0,0,1-8.75-.5,59.39,59.39,0,0,0-10.5-2,63.06,63.06,0,0,0-14.75.25,53.19,53.19,0,0,1-13.5.25,35.23,35.23,0,0,1-8.25-2,35.36,35.36,0,0,1-6-3.25L43,1038l2-1-1-1.5,1-1-1-3.5c.33.67.58,1,.75,1s1.75.08,4.75.25a98.89,98.89,0,0,0,15-1Q75,1030,83,1028.48a49.07,49.07,0,0,0,16-6.25q8-4.76,16-10.25a56.22,56.22,0,0,1,14.25-7.5q6.24-2,18.25-9.5t20.25-11.75q8.25-4.25,10.5-4.75a6.53,6.53,0,0,0,3.25-1.5q1-1,10-4.5t13-5a53.91,53.91,0,0,1-5.75.5,8.63,8.63,0,0,0-2.5.25L194,969l-6-3.5a16.06,16.06,0,0,0-4,1.25,9.53,9.53,0,0,1-4.75.5c-2.17-.17-3.67,0-4.5.5a3.67,3.67,0,0,1-3.25,0,9.78,9.78,0,0,0-2.75-.75,4.05,4.05,0,0,1-1.75-.5l1.5-1.5-1-2.5-1.5-1,1-1,3-2,4-5-1.5-1.5a97.32,97.32,0,0,1-18-15q-1.5-3-2.25-4.25a5.24,5.24,0,0,1-.75-2.75,9.81,9.81,0,0,0-1-3.75,77.62,77.62,0,0,1-2.75-8q-1.75-5.75-1.25-7.5a4.86,4.86,0,0,0,.25-2.5c-.17-.5-.42-1.42-.75-2.75q4.5.49,6.25.75a10.7,10.7,0,0,1,3.25,1,17.72,17.72,0,0,1,4,3.25A38.23,38.23,0,0,0,166,919q3.5,2,5.75,3.5t7.5,1.25c3.5-.17,6.16.33,8,1.5A10.52,10.52,0,0,0,193,927a17.47,17.47,0,0,1,6.25,1.25c2.16.83,4.75,2,7.75,3.5a64.08,64.08,0,0,1,7.75,4.5q3.24,2.25,10.25,8.25a57,57,0,0,0,3.75,6.75,8.21,8.21,0,0,1,1.5,3.75c.16,1.33.08,2.17-.25,2.5a5.47,5.47,0,0,0-1,1.5q9-.5,19-1.5,1-5.51,1.5-9.25t4.25-15.5Q257.5,921,257.5,916a61.87,61.87,0,0,0-.5-8.5,27.71,27.71,0,0,0-1.25-5.5,41.74,41.74,0,0,0-2.75-5.5,26.33,26.33,0,0,1-9.5-4L247,891l-1.5-1Zm-56,194q-10.5,9-21,16.5l-4,4q-12,10.5-25,21l-3.5,4-2.5,1v.5c1.66-.67,3.08-1.25,4.25-1.75S161.33,1116.65,194,1096q.5-6.49,1-13Zm3-79.5h-1.75c-.5,0-1.5.58-3,1.75s-2.84,2.17-4,3S187,1009.31,186,1010a28.89,28.89,0,0,0-4,3.5l-1,1a56.46,56.46,0,0,0-6,3.5,186.45,186.45,0,0,0-12.5,24.5,25.69,25.69,0,0,0,2.75,1.25,5.43,5.43,0,0,0,1.75.25,5.47,5.47,0,0,1,1.75.25,6.24,6.24,0,0,1,2,1.5,46.67,46.67,0,0,0,3.75,3.25c2,2.67,3.66,4.75,5,6.25A21.23,21.23,0,0,1,183,1061a30.05,30.05,0,0,1,2,6.25c.33,1.83.33,3,0,3.5a4,4,0,0,0-.5,2.25l.5.5,3.5-4.5,1.5-1.5,8-10a86,86,0,0,0-3.5-8.5,63.42,63.42,0,0,1-3.5-10q-2-7-1.75-9a4.3,4.3,0,0,1,1.5-3q1.25-1,4-10.75A128.82,128.82,0,0,0,198,1003Zm-5.5,133.5a2.15,2.15,0,0,1-1-.25c-.34-.17-.75.08-1.25.75a32.08,32.08,0,0,1-2.75,3v1l-2.5,1-.5,1a118.48,118.48,0,0,1-9.25,8.5q-3.75,3-5.75,3.5a3,3,0,0,0-.75,1.25,6.13,6.13,0,0,1-1.5,2,8.7,8.7,0,0,0-2,3.5,55.65,55.65,0,0,0-1.5,5.75,25.46,25.46,0,0,0,0,8.75q.75,5.25,1,7.75a4.86,4.86,0,0,0,1.5,3.5,23.2,23.2,0,0,1,3.75,5q9.5,8,20.5,8,.5-11,1.25-17.25t1.5-22.75q.75-16.5.25-18.5A54.27,54.27,0,0,1,192.5,1136.48ZM329,1151a128.6,128.6,0,0,0-15.5,7l-7.5,8q-5,4-7,5.75a10.94,10.94,0,0,1-3.5,2.25q-1.5.49-5,2l-3-2,.5-1-2-3a75.81,75.81,0,0,0-2,17.5h4.5q2,0,15.75-5.75T323,1173a99.63,99.63,0,0,0,11.5-14,38.61,38.61,0,0,0-1.5-4,3.78,3.78,0,0,0-1.25-1.5,17.21,17.21,0,0,1-2.25-2Zm-42.5,7.5q-1.5,3.49-.5,6a15,15,0,0,1,1-3,1.81,1.81,0,0,0,.25-1.5,4.08,4.08,0,0,0-.75-1ZM329,1105a37.93,37.93,0,0,1-10.25,5.75,79.35,79.35,0,0,1-11,3.75,10.69,10.69,0,0,1-8.5-1.75c-2.84-1.83-4.5-2.75-5-2.75H293a55.74,55.74,0,0,1-1.75,11.25,80.66,80.66,0,0,0-2.25,11.25q-1,7-1.75,11.5T286,1157l1.5.5,1-1.5,1.5-.5a5.92,5.92,0,0,1,1.5-5l1.5-.5.5,1,2-.5.5-1.5,5-2.5,1-2.5,3-1q6-6.49,8.25-8.5a109.61,109.61,0,0,0,8.75-10q6.5-8,6.5-11C328.5,1111.48,328.66,1108.65,329,1105Zm6-52.5q-4,3-6,4.25a5.6,5.6,0,0,1-3.75,1,7.31,7.31,0,0,0-4,.75,85.33,85.33,0,0,1-9.25,3q-7,2-8.75,3a35.11,35.11,0,0,1-4.25,2v3.5a6.24,6.24,0,0,1-1,2.75c-.67,1.17-1.17,3.33-1.5,6.5a46.57,46.57,0,0,1-1,6.5,27,27,0,0,0-.75,3.25,44.61,44.61,0,0,0-.25,6H297a55.32,55.32,0,0,0,6.25-1q5.25-1,29.25-13.5a53.3,53.3,0,0,0,1-7.25,10.68,10.68,0,0,1,.75-3.75,13.53,13.53,0,0,0,.75-4.75q0-2.74.5-12.25Zm-.5-58.5q-6.51,5.5-6.75,7.75a6.77,6.77,0,0,1-2.5,4.25q-2.25,2-7.5,11.5t-5.75,13a12,12,0,0,1-2,5.5,14.88,14.88,0,0,0-2.25,4.25q-.75,2.25-2.75,7.25l.5,1a48.69,48.69,0,0,1,7-3.75q3-1.24,24.5-16.25a9,9,0,0,0,3-2.25q1-1.24,1.25-8c.16-4.5.25-8.17.25-11a16.83,16.83,0,0,0-.75-6A21.45,21.45,0,0,1,339.5,997Z"/><path d="M224,1510.48l2.25-.75a16,16,0,0,1,3.75-.25,45.24,45.24,0,0,1,8.75,1.25,52.34,52.34,0,0,1,9.25,2.75,17.14,17.14,0,0,1,4.25,2.25l1.75,1.75a16.35,16.35,0,0,1,0,8,7.35,7.35,0,0,0-2,1.75c-.34.5-1.25.75-2.75.75a6.82,6.82,0,0,0-3.5.75,3.91,3.91,0,0,1-2.75.5,19.37,19.37,0,0,0-4.5,0,30,30,0,0,0-8,2.25,96,96,0,0,1-12,3.75q-7,1.76-9.75,3.5a23.22,23.22,0,0,1-5,2.5A15.77,15.77,0,0,0,199,1544q-2.5,2-10.25,6.75t-13.5,7.75a96.37,96.37,0,0,0-10.75,6.5l-1,2.5,1,1a11.13,11.13,0,0,0,4,2q2,.49,11.5.5t10.75.25a12.4,12.4,0,0,0,2.5.25,30.58,30.58,0,0,1,4.25.5l2,1.5a8.52,8.52,0,0,0,4,1.5,6.93,6.93,0,0,1,3.5,1.25q2,1.24,7,4.25a8.88,8.88,0,0,0,2,2.25,2.18,2.18,0,0,1,1,1.75,29.44,29.44,0,0,0,.5,4,17.47,17.47,0,0,0-3,5.5,15,15,0,0,1-1.75.75,19.87,19.87,0,0,0-3.75,2.75,16.69,16.69,0,0,1-4.5,3,31.87,31.87,0,0,1-4.5,1l-1,1.5a5.43,5.43,0,0,1-1.75-.25,3,3,0,0,0-2,.25,5.83,5.83,0,0,1-3,.25,20.23,20.23,0,0,0-5.25.25,11,11,0,0,0-6,2.75,10.77,10.77,0,0,1-5,2.75q-2.5.49-6.25,3.5t-6.75,3.25a18.93,18.93,0,0,0-5.5,1.25,26.17,26.17,0,0,1-5.5,1.5,46.49,46.49,0,0,0-8.25,2.5,42.67,42.67,0,0,1-8.75,2.5,12.25,12.25,0,0,1-5,0l-1-1c1-1.33,2.16-2.75,3.5-4.25s2.41-2.67,3.25-3.5a37.42,37.42,0,0,0,4-5.75,63.81,63.81,0,0,1,7-9.25q4.25-4.76,5.25-7a35.34,35.34,0,0,1,3-5.25,18,18,0,0,1-2-7.25,18.12,18.12,0,0,0-2-7.25,27.77,27.77,0,0,0-3.75,1.75q-1.26.75-3.75,2.5a57.62,57.62,0,0,1-7.75,4.25q-5.25,2.51-11.25,5a84.52,84.52,0,0,0-13,7q-7,4.5-11.25,5.5a38.42,38.42,0,0,0-6.5,2,18.31,18.31,0,0,1-3.5,1.25,22.18,22.18,0,0,0-3.25,1,38.5,38.5,0,0,1-6.5,1.5A63.89,63.89,0,0,0,69.25,1608,57.11,57.11,0,0,1,55,1611.23q-7.5.75-11-.75a31.92,31.92,0,0,1-6.25-3.5,83.32,83.32,0,0,0-11.25-6q-8.51-4-11-5.5v-1h3a37.44,37.44,0,0,0,4.25-.5,34,34,0,0,1,9,.25,96.9,96.9,0,0,0,12.5.75q6.75,0,16.25-4.25t25-12q15.5-7.76,43.75-24.5t29-16.5a1.14,1.14,0,0,0,1.25-.25l1.5-1.5q11-6.49,15.5-8.25a36.52,36.52,0,0,0,8-4.25A58,58,0,0,1,195,1518a56,56,0,0,1,13.5-4q6.5-1,8-2.25a6.52,6.52,0,0,1,2.75-1.5l3.75-.75ZM194.5,1614a3.06,3.06,0,0,1,1.5.75,9.4,9.4,0,0,0,2.25,1.25,5,5,0,0,0,2.75.25l4.5-.75.5,1a87.32,87.32,0,0,1,9.25,3.25,12.53,12.53,0,0,0,3.5,1.25H220l1,.5,3,.5a15.43,15.43,0,0,0,2.5,6.5L223,1632c-.67,0-1.09-.08-1.25-.25s-.75,0-1.75.5a37.07,37.07,0,0,1-3.5,1.5,16,16,0,0,0-4,2.25,18,18,0,0,1-6.75,2.5c-3.17.67-5.25,1.08-6.25,1.25a4.06,4.06,0,0,0-2.25,1,7.27,7.27,0,0,1-3.5,1.25,17.64,17.64,0,0,0-5.75,2.25,24.6,24.6,0,0,0-5,3.75,16,16,0,0,1-4,3,34.76,34.76,0,0,0-5,3.25q-3,2.25-10.5,10.25a65.08,65.08,0,0,1-5.75,6,54.55,54.55,0,0,0-7.5,9.25,36.3,36.3,0,0,0-5.5,11.25q-1.26,5-1,6.5a18.28,18.28,0,0,0,.75,3,14.16,14.16,0,0,1,3.25-.5,25.27,25.27,0,0,0,6-1.75A70.5,70.5,0,0,0,164.5,1693a66.25,66.25,0,0,0,13-10.5q7-7,11.25-10.5a26.91,26.91,0,0,1,6.25-4.25,17.38,17.38,0,0,0,4.5-2.75l1-1.5a16.12,16.12,0,0,1-.5-4,13.69,13.69,0,0,0,12,.5l.5-2q4.5,1.5,6.75,2a41.78,41.78,0,0,0,4.75.75q2.49.26,6.75,1t5.25,1.5a1.79,1.79,0,0,0,2,.25q4-9.49,6.25-14a54.13,54.13,0,0,0,3.75-10,54.38,54.38,0,0,1,2-6.5,20.32,20.32,0,0,0,1.75,3c.5.67.91,2.25,1.25,4.75a30.3,30.3,0,0,1,.25,6.5c-.17,1.83-.25,3.5-.25,5a14.73,14.73,0,0,1-.5,4,5.78,5.78,0,0,0,.5,4,8.45,8.45,0,0,1,.5,5,15.6,15.6,0,0,0-.25,4.75c.16,1.33-.25,3.92-1.25,7.75a23.29,23.29,0,0,1-4.75,9.5A62.1,62.1,0,0,0,241,1696a20.78,20.78,0,0,0-3.25,9.5,13.47,13.47,0,0,1-2.5,7.5,12.34,12.34,0,0,0-2.5,6.75q-.25,3.75-5.5,12.5t-7.25,10.5q-2,1.76-7.25,9.25T201,1769l-4,2c-1.34-1.67-2.34-2.83-3-3.5a7.21,7.21,0,0,0-3.75-1.5,9.24,9.24,0,0,1-4.5-2c-1.17-1-2.09-1.42-2.75-1.25a6.69,6.69,0,0,1-3-.25,10.55,10.55,0,0,1-2-3.5,43.52,43.52,0,0,1-1.5-4.25q-.51-1.76-1.5-4.5a21.11,21.11,0,0,0-2-4.25l1.25-1.25a5.68,5.68,0,0,0,1-3.25,55.51,55.51,0,0,1,1.5-7.5,78.16,78.16,0,0,1,3-9.5,88.4,88.4,0,0,0,3-9.25,47.48,47.48,0,0,1,2.5-7.5,11.65,11.65,0,0,0,1.25-3.75v-3a23.36,23.36,0,0,1-5.25,2,41.73,41.73,0,0,1-5.75.75,38.82,38.82,0,0,0-7.25,1.25c-2.5.67-4.84,1.25-7,1.75a28.89,28.89,0,0,1-6.5.75H146.5v3.5a4.35,4.35,0,0,0,.5,2,2.14,2.14,0,0,1,0,2,2.47,2.47,0,0,0,.5,2.5q1,1.5,0,4.5a12.37,12.37,0,0,0-.75,5.25,9.16,9.16,0,0,1-.5,4.25A27,27,0,0,0,145,1737a28.62,28.62,0,0,0,.75,9.5q1.25,6,4.25,16.75t4.25,16.75a40.38,40.38,0,0,1,1,10.25c-.17,2.83-.5,4.33-1,4.5A2.24,2.24,0,0,0,153,1796l-2-2a4.66,4.66,0,0,1-3.5-2.5l-4,2-.5-.5-2,2a18.87,18.87,0,0,1-6,0l-1.5,2.5H132l-3-4.5-5.5-4.5a38.37,38.37,0,0,1-3.25-6,69.42,69.42,0,0,1-2-7.25,97,97,0,0,1-2-13,86,86,0,0,1,.25-17.25,158.93,158.93,0,0,1,3.25-19.25,135,135,0,0,1,6-19.25,40.48,40.48,0,0,1,10-15.25,86,86,0,0,0,12.75-15.5q6.5-9.75,6.5-10.5a4,4,0,0,1,.5-1.75,32,32,0,0,0-5,1.75,9,9,0,0,1-4,.75,7.12,7.12,0,0,0-4.25,1.25,6.74,6.74,0,0,1-4,1.25,7.87,7.87,0,0,0-4,1q-1.75,1-9.75,4.25t-10,3a3.26,3.26,0,0,0-2.75.5q-.75.75-6.75,1.5a78.83,78.83,0,0,1-12.75.5,35.21,35.21,0,0,1-10.75-1.75,48.53,48.53,0,0,1-6.25-2.75A21.76,21.76,0,0,1,70.5,1671a23.54,23.54,0,0,1-3.25-3.75,4.42,4.42,0,0,1-.5-3c.16-1.17.16-1.83,0-2a1,1,0,0,1-.25-.75l.5-.5.5-5.5a11.39,11.39,0,0,1,2.75,1.75A2.39,2.39,0,0,0,72,1658a8.37,8.37,0,0,0,2.5-.5,3.57,3.57,0,0,0,2,4c3.66,0,6.5.08,8.5.25a55.76,55.76,0,0,0,8.75-.25Q99.5,1661,112,1656a202.18,202.18,0,0,0,19.5-8.75q7-3.75,8.75-4.75t2.25-.75a.82.82,0,0,0,1-.25l1-1q28.5-18,36-20c5-1.33,7.91-2.25,8.75-2.75A4.3,4.3,0,0,1,191,1617h2ZM188,1434c1.66.33,3.08.58,4.25.75a8.31,8.31,0,0,1,4,2.25,8.41,8.41,0,0,0,4.75,2.25,18.08,18.08,0,0,1,6,2,34.38,34.38,0,0,1,6,3.75,67.85,67.85,0,0,1,7,7l1,1.5,2,1a42.73,42.73,0,0,0,3.5,4.5,6.93,6.93,0,0,1,1.5,2.25,6.63,6.63,0,0,0,1.5,2.25,5.07,5.07,0,0,1,1.25,3,31,31,0,0,1,0,5.5,29.17,29.17,0,0,0,0,5.5,10.92,10.92,0,0,1,0,3.25,5.73,5.73,0,0,1-.75,2,12.3,12.3,0,0,1-2.5,2.25l-1.5,1.5a61.8,61.8,0,0,1-5.5,7.5l-4.5,3-2,2h-1.5l-2,2.5-5.5,3-2.5,2.5c-1.34,1-2.25,1.67-2.75,2a3.14,3.14,0,0,1-2.25.25,7.81,7.81,0,0,0-4,.75,10.62,10.62,0,0,0-3.5,2,5,5,0,0,1-1.75,1.25,11.88,11.88,0,0,0-2.5,1.5,12.15,12.15,0,0,1-2.5,1.5,14.3,14.3,0,0,0-1.75.75l-2.5,2a15,15,0,0,1-2.75,1.5,9.59,9.59,0,0,0-2.5,1.5,11.39,11.39,0,0,1-3.5,1.75,12,12,0,0,1-3.25.75l-1,1.5q-.51,0-5.5,3.25c-3.34,2.17-5.92,3.33-7.75,3.5a7.79,7.79,0,0,0-4.5,1.75,12.56,12.56,0,0,1-3.75,2.25,13,13,0,0,0-4,2.5,5.91,5.91,0,0,1-3.75,1.75,16,16,0,0,0-4.75,1,206.51,206.51,0,0,0,39.5-52h-1a21.39,21.39,0,0,1-3.25-.75q-2.76-.75-8-4.5a63.61,63.61,0,0,1-7.75-6.25q-3-3.49-4.25-5.25a30.83,30.83,0,0,0-3.25-3.75,32,32,0,0,1-4-5,41.22,41.22,0,0,0-6-6.75,32.7,32.7,0,0,1-9.5-13.25h1a6.43,6.43,0,0,0,2.5-4q5.49,2.51,8.25,4a12.81,12.81,0,0,0,6.25,1.5,20.82,20.82,0,0,0,7-1.25,34.39,34.39,0,0,1,9.75-1.5,31.17,31.17,0,0,0,11.75-2.75,77.46,77.46,0,0,1,8.75-3.5Q183,1436,188,1434Zm171.5,40.5a21.73,21.73,0,0,0,4,.5,27.36,27.36,0,0,1,5.5,1,44.23,44.23,0,0,1,10.75,5,51.52,51.52,0,0,1,9.5,6.75,78.64,78.64,0,0,0,7.25,6.25,75.18,75.18,0,0,0,5,7.25,7.11,7.11,0,0,1,1.75,3.75,8.2,8.2,0,0,0,1,3.25,4.46,4.46,0,0,1,.75,2.25,3.32,3.32,0,0,0,.75,2,16.75,16.75,0,0,1,1.75,3.5l-1.5,1.5,1,1q-3,5-5.5,9.5h-1a23,23,0,0,0-1.5,2.5,15.07,15.07,0,0,1-3,3.25,17.17,17.17,0,0,0-3.5,4,37.18,37.18,0,0,1-3.5,4.75h-1c-.67.33-1,.67-1,1a7.31,7.31,0,0,1-1.5,2.5,38.71,38.71,0,0,0-3.75,7.25q-2.25,5.25-3.5,6c-.84.5-1.5,1.75-2,3.75a9.12,9.12,0,0,1-1.75,4,45.58,45.58,0,0,0-3,3.5l2,3,2.5,1.5,2.5,3h2a29.15,29.15,0,0,0,2.25,2.75,3.72,3.72,0,0,1,1,1.75c.16.67.41,1.5.75,2.5a66.79,66.79,0,0,1-4,7,7,7,0,0,0-3,.5,6.54,6.54,0,0,0-1.75,1.25A6,6,0,0,1,373,1595a5,5,0,0,1-4-.75,4.29,4.29,0,0,0-4.25-.25c-1.5.67-3.84,1.83-7,3.5a36.76,36.76,0,0,0-7,4.5c-1.5,1.33-2.59,2.25-3.25,2.75l-3,2.25-1,1.5h-1L341,1611a83,83,0,0,0-8,3.5l-3.5,3.5q-4,3-6.25,4.5a14.08,14.08,0,0,1-6,2,9.67,9.67,0,0,0-5.75,2.5c-1.34,1.33-2.42,1.92-3.25,1.75a1.85,1.85,0,0,0-2,.75,2.45,2.45,0,0,1-2.5.75,5.81,5.81,0,0,0-3,.25,24,24,0,0,1-3.5,1c-1.5.33-2.59.25-3.25-.25a1.93,1.93,0,0,0-1.75-.5A11,11,0,0,0,290,1632a4.35,4.35,0,0,0-.5,2,9.54,9.54,0,0,0,.75,3,9.79,9.79,0,0,1,.75,3.25,2.71,2.71,0,0,0,.75,2,49.9,49.9,0,0,1,3.5,4.75,21.58,21.58,0,0,1,3.5,7.5,32.15,32.15,0,0,1,.75,6.75,7.46,7.46,0,0,1-1.5,5,4.36,4.36,0,0,0-1.25,3.5c.16,1.17-.42,3.83-1.75,8a72.39,72.39,0,0,0-2.5,9.25,11.35,11.35,0,0,1-2,5,7.3,7.3,0,0,0-1.5,4.5c0,1.67-.84,4.75-2.5,9.25a56.87,56.87,0,0,0-3.25,13,37.1,37.1,0,0,1-2.5,10.25,23.52,23.52,0,0,0-1.75,9.5,89.44,89.44,0,0,0,.5,10q.5,4.5,1.5,6c.66,1,1.5,2.33,2.5,4a28.17,28.17,0,0,0,4.5,4.5q2.49,2,9,4t20.75,3.25q14.25,1.24,28.75,1.25a203,203,0,0,0,24.5-1.25,140.28,140.28,0,0,0,18.5-3.5q8.49-2.25,14.5-4.5t14-5.75a17,17,0,0,1,1.25-3.5q.75-1.5,1.5-8.5a124.64,124.64,0,0,0,.75-13.25,35.18,35.18,0,0,0-1.25-10.25,11.31,11.31,0,0,1-.5-6.5c.5-1.67.08-4.58-1.25-8.75s-2.17-7-2.5-8.5a22.84,22.84,0,0,0-3-6.25,42.38,42.38,0,0,0-6-7.5,37.76,37.76,0,0,1-3.75-4,2.18,2.18,0,0,1-.25-1,12.06,12.06,0,0,0,7-1l1.5-2a17.54,17.54,0,0,0,2-.75c.33-.17.91-.08,1.75.25a30.84,30.84,0,0,0,3,1,15.14,15.14,0,0,1,3.75,1.75q2,1.24,6,4.25l4.5,5.5,5.5,5h1.5l7.5,8.5a32,32,0,0,0,3.5,2l2,5,6.5,4.5a11.39,11.39,0,0,0,1.25,3.75c.83,1.83,1.58,3.42,2.25,4.75h1a5.25,5.25,0,0,0,1,2c.33.33.33,1.42,0,3.25a11.37,11.37,0,0,0,.5,5.75,10.73,10.73,0,0,0,2,4,12,12,0,0,1,2,3,19.55,19.55,0,0,1,3.5,2.5,4.85,4.85,0,0,0,3.5,1,6.08,6.08,0,0,1,4,1.25,4.36,4.36,0,0,0,2.5,1.25,4.14,4.14,0,0,0,1,4l-2.5,1.5,2,.5v2.5l3.5,2-4,3v2h-1l-1,1a5.43,5.43,0,0,1-1.5,5l-4.5,3.5c.33.67.66,1.33,1,2a1,1,0,0,1-.75-.25q-.25-.26-1.5.75a12.3,12.3,0,0,1-4.75,1.75q-3.51.75-11,4.75t-10,4.25a11.71,11.71,0,0,0-4,1,20.71,20.71,0,0,1-6,1.25,37.62,37.62,0,0,0-10,2.75q-5.5,2.25-7.25,2.25a7.16,7.16,0,0,0-3.25.75,16.14,16.14,0,0,1-5.5,1,21.33,21.33,0,0,0-6.5,1.25,19.54,19.54,0,0,1-5.75,1.25c-2.17.17-3.92.25-5.25.25a18.4,18.4,0,0,0-4.75.75,18.62,18.62,0,0,1-7.5,0,41.25,41.25,0,0,0-10.25-.25,68.59,68.59,0,0,1-13.75-.5,111.46,111.46,0,0,0-11.75-1,18.48,18.48,0,0,1-5.75-.75,20.58,20.58,0,0,0-6.25-.75,51.85,51.85,0,0,0-6,.25,26.8,26.8,0,0,1-3.25.25,30.42,30.42,0,0,1-4.25-.5l-.5-.5a2.15,2.15,0,0,0-1,.25q-.51.26-5.25,0a40.32,40.32,0,0,1-11.5-2.75,81,81,0,0,1-12-5.5,103,103,0,0,1-8.75-5.5q-3.51-2.51-10-8-4-6.49-6.25-8.5a22.41,22.41,0,0,1-4.5-6.25,38.94,38.94,0,0,1-3.5-10,61.1,61.1,0,0,1-1-14.5q.24-8.74,1.75-23t8-33.75q6.5-19.5,9-29t2-10.25a9.38,9.38,0,0,1-1-2.25c-3.34-1.67-5.75-2.83-7.25-3.5a11.62,11.62,0,0,1-3.5-2.25A30.18,30.18,0,0,0,261,1624q-1.5-2.51-2.25-4a10.35,10.35,0,0,1-1-3.25A8.4,8.4,0,0,0,256,1613q-1.5-2-3.5-8l2-1-3-2q5,1.5,7.5,2.5a17.64,17.64,0,0,0,6.5,1,34.79,34.79,0,0,0,8.75-1.25c3.16-.83,5.75-1.58,7.75-2.25a56.06,56.06,0,0,0,7-3l1-1.5,6.5-5.5a80.76,80.76,0,0,1,7.75-7.75,24.36,24.36,0,0,0,5.5-7.5,50.61,50.61,0,0,0,3.5-7.75,14.19,14.19,0,0,1,2.25-4.5,76.48,76.48,0,0,0,4.75-8,81.06,81.06,0,0,1,6.25-10q3-4,3-5.25a13.7,13.7,0,0,1,.5-3.25,3.41,3.41,0,0,1-1.5-.25,1.58,1.58,0,0,0-1.25,0,3.05,3.05,0,0,1-1.75,0c-.67-.17-1.75.17-3.25,1a6,6,0,0,1-3.75,1,5.7,5.7,0,0,1-3-1.75,9.75,9.75,0,0,0-4.75-2.25A25.08,25.08,0,0,1,304,1533a13,13,0,0,0-6.25-2,9.12,9.12,0,0,1-5.75-2.5q-3-2.51-10.5-9.5l-7.5-9.5,1-2q-2.5-5.51-3.25-7.75a9.41,9.41,0,0,0-2.25-3.75,10.57,10.57,0,0,1-2-2.5l1.5-1.5a3.9,3.9,0,0,0,1,.75,7.18,7.18,0,0,0,2.5.25,6.14,6.14,0,0,1,3.5,1,19.6,19.6,0,0,0,4.5,2,23.93,23.93,0,0,0,7.5,1,30.57,30.57,0,0,0,10.5-2.25q6-2.25,7.5-3.75a5.74,5.74,0,0,1,3.25-1.75,20.23,20.23,0,0,0,5.75-2.5q4-2.25,7.5-4a17.94,17.94,0,0,1,6-2A27.64,27.64,0,0,0,335,1479a70.32,70.32,0,0,1,9.75-2.75,45.49,45.49,0,0,1,9-1.25h4A4.09,4.09,0,0,0,359.5,1474.48Z"/><path d="M713.64,131.86q-8.25,2.1-9.9,5.55c-.51,1.2-1.15,1.8-2,1.8q-1.65,0-15.68-5.85a127.59,127.59,0,0,1-24-12.82,95,95,0,0,1-18.67-17.48q-34.07,32.1-69,44.1l-.75-1.8A198.39,198.39,0,0,0,608.11,125q15.52-11.55,34-30.45l7.65,4.8q.9.45.9,1c0,.4-.48.65-1.43.75a25.12,25.12,0,0,0-3.67.75,95.5,95.5,0,0,0,31.57,20.85,95,95,0,0,0,36.38,7.5ZM640.74,72c.69.7,1,1.25,1,1.65s-.55.6-1.65.6h-25.2v6q18.45,5,18.45,12.45a4.58,4.58,0,0,1-.83,2.78,2.64,2.64,0,0,1-2.25,1.12c-.95,0-2.08-1-3.37-3a33.74,33.74,0,0,0-12-11.1v26.7q0,2.25-2.93,3.53a13.09,13.09,0,0,1-3.82,1.27c-.6,0-.81-1.25-.6-3.75q.75-9,.75-14.4V82.51a207.69,207.69,0,0,1-31.2,32.1l-1.35-1.5q20.38-20.4,32.4-38.85h-18.6a34.58,34.58,0,0,0-9.75,1.2l-4.2-4.95c4.8.3,8.34.45,10.65.45h22.05V53.86Q588.67,57,581,58.06l-.15-1.8Q611,48.61,628,42.31l5.85,7a2.63,2.63,0,0,1,.75,1.35.4.4,0,0,1-.45.45,9,9,0,0,1-1.95-.45,14.59,14.59,0,0,0-4.05-.45q-1.95,0-13.2,2.4V71h12.3l5.7-7Zm-7.8,75.9-22.05,11.55a120.77,120.77,0,0,0-11.18,6.45,12.67,12.67,0,0,0-3.82,4.35l-6.9-7.95,43.35-16.05ZM612.39,129q15.15,4.2,15.15,11a4.32,4.32,0,0,1-.9,2.78,2.77,2.77,0,0,1-2.25,1.12q-1.35,0-3.45-3.45a31.37,31.37,0,0,0-9.75-10Zm62.4,4.5a1.6,1.6,0,0,1,.75,1.13c0,.35-.45.47-1.35.37a26.66,26.66,0,0,0-2.93-.15,8.78,8.78,0,0,0-3.37.75l-21.9,9v26.1a11.43,11.43,0,0,1-1,5.63q-1.05,1.72-4.88,3.67t-4.72,2a1,1,0,0,1-1.05-.9,8,8,0,0,0-4.13-6.22A39.32,39.32,0,0,0,619.29,171l.45-1.95c7.29,1.5,12,2.25,14.1,2.25a9.67,9.67,0,0,0,4.2-.6,2.38,2.38,0,0,0,1.05-2.25V127.51q0-6.6-.45-13.05L649,119c.7.3,1,.63,1,1s-.3.72-.9,1.12L646,123v19.35q14.55-8.55,21.75-15.15Zm29.85-70.8-3.9,2.4q-2.25,20.55-3.53,30.53t-6.9,13c-3.75,2-6,3-6.67,3s-1.11-.82-1.5-2.47a6.89,6.89,0,0,0-3.08-4.13,68.2,68.2,0,0,0-10.27-4.8l.3-1.95q10.65,2.85,14.7,2.85t5.55-2.25q1.49-2.25,3.07-14.4T694.29,63h-14.7q-6.17,26-25.2,39.15L653,100.81q16.5-16.95,19.2-37.8h-14.7A246,246,0,0,1,641,86.26l-1.5-1.2q9.3-14.85,22.05-43.8l8.4,6.15a1.32,1.32,0,0,1,.6,1.05c0,.4-.65.83-2,1.28A15.69,15.69,0,0,0,665.71,51a8.71,8.71,0,0,0-2.32,2.85c-.9,1.5-2.16,3.45-3.75,5.85h32.25l3.45-5.7,9.3,6.15c.69.4,1.05.83,1.05,1.28S705.33,62.31,704.64,62.71Zm-56.1,83.4a195.85,195.85,0,0,1,21.52,6.45,85.22,85.22,0,0,1,13.73,6.3q5,3,6.52,5.25a7.63,7.63,0,0,1,1.58,4.35,5.21,5.21,0,0,1-1,3.38,3.42,3.42,0,0,1-2.78,1.27q-1.72,0-5.17-4.27t-13.5-10.65a106.68,106.68,0,0,0-21.45-10.43Z"/><path d="M633.39,254.11l-4,2.85v47.7q0,11.1.3,17.7l.45,10.8q0,2.7-3.08,3.83a16.78,16.78,0,0,1-3.82,1.12c-.51,0-.75-.65-.75-1.95v-7.5H595.29v10q0,2.4-2.7,3.53a12.83,12.83,0,0,1-3.45,1.12q-1.35,0-1.35-2.1t.22-11.4q.22-9.3.23-22.2V260.11q0-8.4-.45-15.75l10.2,7.2h21.6l4.2-5.85,9.45,5.7c.9.6,1.35,1.08,1.35,1.43S634.19,253.61,633.39,254.11Zm-10.95,33.3v-32.7H595.29v32.7Zm0,38.1V290.56H595.29v34.95ZM701.64,251l-4.5,3.15v106.2a13.34,13.34,0,0,1-1.13,6.15c-.75,1.4-2.53,3-5.32,4.73s-4.43,2.62-4.88,2.62-.77-.45-1-1.35a11.14,11.14,0,0,0-4.8-7.12q-3.75-2.47-15.3-5.48l.45-2.4q14.53,3,18.75,3c2.79,0,4.52-.4,5.17-1.2a6.5,6.5,0,0,0,1-4.05V316.66H655q-.6,21.45-11.25,34.65t-33.45,24l-1-1.95q15.15-9.75,22.8-17.1a49.23,49.23,0,0,0,11.55-16.8q3.9-9.45,5-23.4t1.13-40.35v-17.1q0-10.05-.45-18.15l9.15,7.65h28.65l5.25-6.6,9.15,6.15c1,.7,1.5,1.28,1.5,1.73S702.54,250.36,701.64,251Zm-11.55,62.55v-29.1H656.34q-.76,22.8-1.2,29.1Zm0-32.25v-30h-33.3q0,15-.45,30Z"/><path d="M714.69,550.06q-7.2,1.65-10.35,4.05a10.17,10.17,0,0,0-3.9,4.95,2.39,2.39,0,0,1-.9,1.42,4.85,4.85,0,0,1-1.95.53l-15.15.52c-4.11.15-7.78.23-11,.23s-6.25,0-9-.15-5.77-.3-9.07-.6a60.59,60.59,0,0,1-22.8-6.15,54.36,54.36,0,0,1-19-15.45,44.91,44.91,0,0,0-5.4-6.23,7.43,7.43,0,0,0-4.2-2.17,4.93,4.93,0,0,0-3.83,1.72,48.61,48.61,0,0,0-4.57,5.63,58.43,58.43,0,0,0-5.1,8.17,26.93,26.93,0,0,0-2.25,6.08c-.3,1-.63,1.52-1,1.57a2.54,2.54,0,0,1-1.57-.67l-7.5-5.4q8.85-9.45,14.17-14.7t8.78-7q3.45-1.71,5.77-.3a22.37,22.37,0,0,1,5.33,5.33,395.9,395.9,0,0,0,34-29.4,384.14,384.14,0,0,0,30.83-33.6H596.19a25.55,25.55,0,0,0-5.25.6,19.54,19.54,0,0,0-4.65,1.5l-4.5-5.4c1.89.1,3.8.15,5.7.15h87.3l8-7.8,8.85,9.45c1.1,1.1,1.52,1.9,1.27,2.4s-1.33.85-3.22,1.05a15.53,15.53,0,0,0-6.08,1.72,22.92,22.92,0,0,0-5.47,4.43q-9.32,9.75-17.85,18.07T643.66,510q-8,7.05-15.75,13.2t-15.22,11.55a43.84,43.84,0,0,0,7.8,7.42,55.61,55.61,0,0,0,9.75,5.85,58.35,58.35,0,0,0,23.4,5.48q6.75.15,13.57,0t14.18-.83q7.33-.67,15.52-1.87t17.63-3Zm-69.75-102.3a9.86,9.86,0,0,1,1,4.8,8.18,8.18,0,0,1-1.13,3.82,8.27,8.27,0,0,1-2.4,2.55,4.84,4.84,0,0,1-2.77,1,2.93,2.93,0,0,1-2.85-1.43c-.7-1.05-1.26-3.17-1.65-6.37a17.39,17.39,0,0,0-3-7.35q-2.7-4.2-9.9-10.2l.9-1.8a92,92,0,0,1,9.6,4.35,49.73,49.73,0,0,1,6.37,4,21.51,21.51,0,0,1,3.83,3.6A15.25,15.25,0,0,1,644.94,447.76Z"/><path d="M710.34,655.21q1.8,1.8,1.8,2.55c0,.5-.81.75-2.4.75H587.49a27.44,27.44,0,0,0-10,1.65l-4.2-5.55a91.47,91.47,0,0,0,11,.6H652q12.15-17.25,17.85-29.4l10.2,7.5c.69.5,1.05.93,1.05,1.27s-.45.58-1.35.68q-3.3.3-7,3.45t-16.35,16.5h38.55l6.6-8.85Zm-67.5,23.7-5,3.45v70.95a14.49,14.49,0,0,1-1,6.15q-1,1.95-5.1,4.72T626.94,767c-.51,0-.9-.45-1.2-1.35a9.36,9.36,0,0,0-4-5.25q-3.15-2.1-11.25-4.5l.45-2.1q11.25,1.8,14.47,1.8a12.58,12.58,0,0,0,4.43-.53c.8-.35,1.2-1.22,1.2-2.62V725H598.44v36.3q0,2.4-2.93,3.75a16.91,16.91,0,0,1-3.37,1.35c-.81,0-1.2-1.2-1.2-3.6l.45-21.45v-52.2q0-10.05-.6-21.9l9.9,8.1h28l4.8-6.15,9.3,7.05q1.2.75,1.2,1.35T642.84,678.91ZM631,698.41v-19.8H598.44v19.8Zm0,23.25V701.71H598.44v19.95Zm-23-96.15q22.8,10.35,22.8,19.2a10.92,10.92,0,0,1-1.73,6q-1.73,2.7-3.15,2.7a2.23,2.23,0,0,1-2-.9,15.39,15.39,0,0,1-1.35-4.2q-2.57-10.35-15-21Zm61.35,57.75-3.9,2.7v31.35q0,8.1.15,11.7l.45,6.15c0,1-1,1.93-3,2.77a13.31,13.31,0,0,1-4.05,1.28q-1,0-1-2.7l.3-8.25c.09-3.3.15-7,.15-11.1v-27q0-4-.45-15.75l11.25,6.15c.9.5,1.35.93,1.35,1.27S670.19,682.66,669.39,683.26Zm26.25-7.8L692.49,678v74.1q0,5.1-1.28,7.57t-6.22,5.4Q680,768,679.29,768c-.51,0-.9-.45-1.2-1.35a9,9,0,0,0-4.28-5.78q-3.37-2-14-4.87l.45-2q14.25,2.4,18.75,2.4t5.47-1.28c.65-.85,1-2.37,1-4.57V689.26q0-10.05-.6-21.9l10.8,5.4c.9.4,1.35.78,1.35,1.12S696.54,674.76,695.64,675.46Z"/><path d="M632.49,909.76q10.35-8.1,12.37-12.45a20.17,20.17,0,0,0,2-8.55,4.7,4.7,0,0,0-.6-2.48c-.4-.64-1.3-1-2.7-1h-1.35a9.54,9.54,0,0,1-6.53-2.18,6.71,6.71,0,0,1-2.47-5.25,8.21,8.21,0,0,1,2.17-5.55,7.49,7.49,0,0,1,5.93-2.47q5.25,0,9.37,4.65a16.57,16.57,0,0,1,4.13,11.4q0,6.75-5.25,14.25A45,45,0,0,1,635,913.06Z"/><path d="M604.74,1111.06a39.47,39.47,0,0,0-5.1.38,16.31,16.31,0,0,0-4.5,1.12l-4-5.4q2.55.3,5.25.45c1.8.1,3.54.15,5.25.15h38.1v-16q0-4.35-.08-7.57t-.37-7.13l12.45,5.4q2.25.9.15,2.25l-4.65,3v20.1h31.5l6.6-8,9,9q2.25,2.25-.45,2.25H647.19v32.1h47.7l7.05-8.55,9.15,9.6q2.1,2.25-.45,2.25H590.49a42.33,42.33,0,0,0-5.33.38,18.71,18.71,0,0,0-4.72,1.12l-4.2-5.4q2.7.3,5.55.45t5.4.15h52.5v-32.1Zm-8.4-78.3a42.33,42.33,0,0,0-5.33.38,18.71,18.71,0,0,0-4.72,1.12l-4.2-5.4q2.7.3,5.55.45t5.4.15h95.7l7-8.7,9.9,9.3q3,2.7-.45,2.7H638.79l7.35,5.1c.5.4.72.78.67,1.13s-.37.57-1,.67a10.09,10.09,0,0,0-6.15,2.85l-5.63,5.33q-2.92,2.78-6.52,6.3c-2.4,2.35-5.16,5-8.25,8s-6.7,6.45-10.8,10.35l73.8-2.1a70.54,70.54,0,0,0-4.28-5.7q-2.47-3-5.4-6.15t-6.22-6.3c-2.2-2.1-4.41-4-6.6-5.85l1.35-1.5q7.2,4.2,13.35,8.63a125.46,125.46,0,0,1,10.8,8.62,83.72,83.72,0,0,1,7.57,7.65q2.92,3.45,3.38,5.55a9.58,9.58,0,0,1-.75,6.9q-1.66,3.15-4,3.15a2.58,2.58,0,0,1-2.18-1.12,12.85,12.85,0,0,1-1.57-4.13,31,31,0,0,0-3.45-6.9l-63.45,4.2q-9,.75-15.08,1.8t-8.62,2.7c-1.3.8-2.31.65-3-.45l-4.65-8.4,14.25-.45q5.09-5.55,9.45-10.5t8.17-9.75q3.83-4.8,7.2-9.6t6.83-10Z"/><path d="M622.14,1233.76l-4,2.85v64.5c0,6.2.09,10.7.3,13.5l.45,6.75q0,2.1-2.93,3.53a12.45,12.45,0,0,1-3.75,1.42c-.55,0-.82-.6-.82-1.8v-5.25H589V1331q0,2.25-2.7,3.15a14.73,14.73,0,0,1-3.6.9q-.9,0-.9-3.3l.3-10.65c.09-4,.15-8.4.15-13.2v-68.25q0-8.1-.45-15.45l8.85,6.9h19.05l3.75-5.25,8.55,5.55c.9.6,1.35,1,1.35,1.28S622.94,1233.26,622.14,1233.76Zm-10.8,37v-36.75H589v36.75Zm0,45.45v-42.45H589v42.45Zm100.8-47a2.46,2.46,0,0,1,.9,1.5q0,.6-1.35.6h-79.8a17.08,17.08,0,0,0-7.65,1.5l-3.75-5.1a85.89,85.89,0,0,0,8.7.6h42.75a259.1,259.1,0,0,0,12.9-28.65l8.55,5.25q.9.6.9,1.2c0,.4-.53.78-1.58,1.12a10.91,10.91,0,0,0-2.47,1.13,7.64,7.64,0,0,0-1.8,1.8l-13.65,18.15h22.35l6.15-8ZM709,1234.06c.8.8,1.2,1.38,1.2,1.72s-.55.53-1.65.53h-69.6a17.88,17.88,0,0,0-8,1.5l-4.5-5.1q6.15.6,9.9.6h58.35l5.7-8Zm-9,54.75-5.25,3.45v36.6c0,3.6.09,6.85.3,9.75l.3,6.9c0,1.4-1,2.45-2.85,3.15a14.82,14.82,0,0,1-3.68,1c-.55,0-.82-.55-.82-1.65v-10.5H643.44v9.15c0,1.3-.88,2.25-2.63,2.85a13.75,13.75,0,0,1-3.6.9c-.65,0-1-.45-1-1.35s.09-4,.3-9.45.3-10.1.3-14.1v-33.3q0-9.15-.3-12.75l8.55,6.45h40.8l4.2-6.15,9.75,7q.75.6.75,1.05A1.24,1.24,0,0,1,700,1288.81Zm-59.1-48.45q10.35,5.25,14,8.55t3.6,6.67a9.91,9.91,0,0,1-1.58,5.7c-1.05,1.56-2.2,2.33-3.45,2.33a2.26,2.26,0,0,1-2.32-2.1,31.91,31.91,0,0,0-3.3-9.75,48.88,48.88,0,0,0-8.1-9.9Zm47.1,69.15V1289H643.44v20.55Zm0,25v-22H643.44v22Zm-31.5-123.45q10.35,4.2,13.72,6.83t3.38,6a8.88,8.88,0,0,1-1.65,5.54,4.61,4.61,0,0,1-3.6,2.18,2.3,2.3,0,0,1-2.4-2.1,33.85,33.85,0,0,0-3.23-9.15q-1.73-2.85-7.27-8Z"/><path d="M714.69,1525.06q-7.2,1.65-10.35,4a10.17,10.17,0,0,0-3.9,5,2.39,2.39,0,0,1-.9,1.42,4.85,4.85,0,0,1-1.95.53l-15.15.52c-4.11.16-7.78.23-11,.23s-6.25,0-9-.15-5.77-.3-9.07-.6a60.59,60.59,0,0,1-22.8-6.15,54.36,54.36,0,0,1-19-15.45,44.13,44.13,0,0,0-5.4-6.22,7.4,7.4,0,0,0-4.2-2.18,4.93,4.93,0,0,0-3.83,1.72,48.61,48.61,0,0,0-4.57,5.63,58.43,58.43,0,0,0-5.1,8.17,26.93,26.93,0,0,0-2.25,6.08c-.3,1-.63,1.52-1,1.58a2.64,2.64,0,0,1-1.57-.68l-7.5-5.4q8.85-9.45,14.17-14.7t8.78-7q3.45-1.73,5.77-.3a22.1,22.1,0,0,1,5.33,5.32,395.9,395.9,0,0,0,34-29.4,384.14,384.14,0,0,0,30.83-33.6H596.19a25.55,25.55,0,0,0-5.25.6,19.54,19.54,0,0,0-4.65,1.5l-4.5-5.4c1.89.1,3.8.15,5.7.15h87.3l8-7.8,8.85,9.45c1.1,1.1,1.52,1.9,1.27,2.4s-1.33.85-3.22,1.05a15.37,15.37,0,0,0-6.08,1.73,22.61,22.61,0,0,0-5.47,4.42q-9.32,9.75-17.85,18.08T643.66,1485q-8,7-15.75,13.2t-15.22,11.55a43.88,43.88,0,0,0,7.8,7.43,55,55,0,0,0,9.75,5.84,57.82,57.82,0,0,0,11.17,3.91,58.75,58.75,0,0,0,12.23,1.57q6.75.15,13.57,0t14.18-.82q7.33-.69,15.52-1.88t17.63-3Zm-69.75-102.3a9.86,9.86,0,0,1,1,4.8,8.25,8.25,0,0,1-1.13,3.83,8.39,8.39,0,0,1-2.4,2.55,4.9,4.9,0,0,1-2.77,1,2.93,2.93,0,0,1-2.85-1.43c-.7-1-1.26-3.17-1.65-6.37a17.39,17.39,0,0,0-3-7.35q-2.7-4.2-9.9-10.2l.9-1.8a92,92,0,0,1,9.6,4.35,50.88,50.88,0,0,1,6.37,4,21.17,21.17,0,0,1,3.83,3.61A15.21,15.21,0,0,1,644.94,1422.76Z"/><path d="M598.14,1670.56a273.06,273.06,0,0,1-24,24l-1.35-2q11.38-13,21.82-27.6a291.56,291.56,0,0,0,17.78-27.75l9.75,6.6c1.29.9,1.1,1.45-.6,1.65a13.52,13.52,0,0,0-3.75,1.27,8.65,8.65,0,0,0-3.15,2.63c-2,2.8-3.7,5.13-5.1,7s-2.95,3.82-4.65,5.92v55.27q0,3.68.07,6.53c0,1.9.13,3.7.23,5.4s.2,3.6.3,5.7a5.13,5.13,0,0,1-.45,3.07,9.09,9.09,0,0,1-3.3,2c-2,.8-3.25,1.1-3.75.9s-.7-1.1-.6-2.7q.3-6.6.52-13.28t.23-13.87Zm26.1-61q2.25,1.8-.45,1.8a14,14,0,0,0-3.68.52,6.35,6.35,0,0,0-2.77,1.43q-12.6,12.45-22.58,20.77a164.6,164.6,0,0,1-19.27,14l-1.2-2.1a297.88,297.88,0,0,0,23-21.82,221.51,221.51,0,0,0,18-21.83Zm57.9,76.65,4.5-5.1,9.45,7.35c.9.7,1.32,1.23,1.27,1.57s-.73.68-2,1a9,9,0,0,0-3.83,1.87,23.64,23.64,0,0,0-4,4.73A112.4,112.4,0,0,1,679,1709a78.85,78.85,0,0,1-8.7,8.55,76.8,76.8,0,0,0,21.45,10.2,71.17,71.17,0,0,0,23.25,3V1733c-2.5.3-4.55.62-6.15,1a21.69,21.69,0,0,0-4,1.2,8.67,8.67,0,0,0-2.55,1.57,10.16,10.16,0,0,0-1.72,2.1,1.53,1.53,0,0,1-2,.6q-20.4-7.35-33-18a92.87,92.87,0,0,1-21.08,11.48q-12.22,4.86-30.22,8l-.45-2.55a221.94,221.94,0,0,0,27.67-10,112.4,112.4,0,0,0,19.58-11,68.54,68.54,0,0,1-10.58-12.75,91.23,91.23,0,0,1-7.72-15q-4.05,6.6-7.43,11.4t-6.45,8.55q-3.08,3.75-6,6.83t-6.22,6.07l-1.5-1.65a195.23,195.23,0,0,0,14.4-20.92,287.41,287.41,0,0,0,14.7-28.28l8.4,4.5c1,.5,1.45.9,1.35,1.2s-.75.6-2,.9a11.08,11.08,0,0,0-1.5.6,5.52,5.52,0,0,0-1.35,1,13.67,13.67,0,0,0-1.73,2.25l-2.62,4.05Zm8.85-23.85a83.86,83.86,0,0,0-6.75-7.12,80.8,80.8,0,0,0-7.65-6.38l1.35-2.1q8.25,4.2,13.72,7.65a68.6,68.6,0,0,1,8.7,6.3,25.31,25.31,0,0,1,4.73,5.25,11.94,11.94,0,0,1,1.8,4.5,9.81,9.81,0,0,1-1,6.15q-1.5,2.7-3.75,2.4a2.77,2.77,0,0,1-2.1-1.27,35.57,35.57,0,0,1-2.4-5.18,26.39,26.39,0,0,0-3.75-6.45l-46.8,3.45q-8.87.75-14.85,1.8a26.4,26.4,0,0,0-9.15,3,1.43,1.43,0,0,1-2.25-.45l-5.55-8.4,25.2-1c1.5-1.3,2.94-2.57,4.35-3.83s3-2.74,4.87-4.5,4.05-3.87,6.6-6.37,5.78-5.7,9.68-9.6l-14.7,1.5c-5.61.6-9.75,1.18-12.45,1.72a22.69,22.69,0,0,0-6.45,2.18,1.39,1.39,0,0,1-2.1-.45l-4.65-8a73.39,73.39,0,0,0,7.8.45,181,181,0,0,0,15.45-18.15,154.66,154.66,0,0,0,11.55-18l10.05,6.75c1,.7,1.42,1.18,1.27,1.42s-.77.38-1.87.38a9.06,9.06,0,0,0-6,2.55q-9.76,10-15.75,15.68t-10.2,9.22l31.5-.75q3.45-3.6,7.87-8.4t9.23-10.5l9.9,6.45c.8.5,1.2.88,1.2,1.12s-.55.43-1.65.53a21.13,21.13,0,0,0-4,.83,15.1,15.1,0,0,0-4.27,2.77l-12.75,10.73q-5.25,4.43-9.68,8.09t-8.77,7.28q-4.37,3.6-10.2,8.55Zm-44.55,27.15a68.37,68.37,0,0,0,8.25,13.43,72.59,72.59,0,0,0,10.8,11,61.46,61.46,0,0,0,17-24.45Z"/><path d="M643.44,1848.91a17.95,17.95,0,0,1,12.6,5,15.74,15.74,0,0,1,3.67,5.55,19.64,19.64,0,0,1,0,14A15.74,15.74,0,0,1,656,1879a18,18,0,0,1-12.6,5,17.69,17.69,0,0,1-7.05-1.35,18.07,18.07,0,0,1-5.55-3.67,15.63,15.63,0,0,1-3.68-5.55,18.42,18.42,0,0,1-1.27-6.83A17.12,17.12,0,0,1,631,1854,16.92,16.92,0,0,1,643.44,1848.91Zm0,30.6a12.55,12.55,0,0,0,9.37-3.75,13.59,13.59,0,0,0,0-18.6,12.39,12.39,0,0,0-9.22-3.75,13.06,13.06,0,0,0-13.2,13.2,12.45,12.45,0,0,0,3.75,9.15A12.61,12.61,0,0,0,643.44,1879.51Z"/></svg>